<?xml version="1.0" encoding="utf-8"?>
<!-- Generator: Adobe Illustrator 25.4.1, SVG Export Plug-In . SVG Version: 6.00 Build 0)  -->
<svg version="1.1" id="Layer_1" xmlns="http://www.w3.org/2000/svg" xmlns:xlink="http://www.w3.org/1999/xlink" x="0px" y="0px"
	 viewBox="0 0 567 162" style="enable-background:new 0 0 567 162;" xml:space="preserve">
<style type="text/css">
	.st0{clip-path:url(#SVGID_00000047783051549677745860000011127665862194302132_);}
	.st1{fill:#FFFFFF;}
	.st2{fill-rule:evenodd;clip-rule:evenodd;fill:#FFFFFF;}
</style>
<g>
	<defs>
		<rect id="SVGID_1_" width="566.9" height="161.6"/>
	</defs>
	<clipPath id="SVGID_00000175302364657404059970000001132681024631220893_">
		<use xlink:href="#SVGID_1_"  style="overflow:visible;"/>
	</clipPath>
	<g style="clip-path:url(#SVGID_00000175302364657404059970000001132681024631220893_);">
		<path class="st1" d="M12.3,157c-3.6,0-4.6-2.3-5-3.7c-0.1-1.3,0.1-2.5,0.7-3.7L69,44c0.4-0.6,0.9-1.2,1.5-1.5
			c0.6-0.4,1.3-0.5,2.1-0.5c0.6,0,1.2,0.1,1.7,0.4c1.6,0.7,2.6,2.2,3.2,3.4c1.5,2.7,2.2,5.7,2.2,8.7c0,3-0.8,6-2.3,8.7l-49.9,86.4
			c-1.3,2.3-3.2,4.2-5.6,5.5c-2.3,1.3-4.9,2-7.6,2L12.3,157z"/>
		<path class="st1" d="M12.2,155.9c-2.1,0-3.4-0.9-3.9-2.8c0-0.2,0.1-2,0.5-2.8l61-105.6c0.3-0.5,0.6-0.8,1.1-1.1
			c0.5-0.3,1-0.4,1.5-0.4c0.4,0,0.9,0.1,1.3,0.3c1.3,0.6,2.2,2,2.6,2.8c1.4,2.5,2.1,5.3,2.1,8.2c0,2.9-0.8,5.7-2.2,8.1l-49.9,86.4
			c-1.2,2.1-3,3.9-5.1,5.1c-2.1,1.2-4.6,1.9-7,1.9H12.2z"/>
		<path class="st1" d="M72.5,43.8c0.3,0,0.7,0.1,1,0.2c1.4,0.6,2.2,2.4,2.3,2.5c1.3,2.4,2,5.1,2,7.8c0,2.7-0.7,5.4-2.1,7.8
			l-49.9,86.4c-1.2,2-2.8,3.7-4.9,4.9c-2,1.2-4.3,1.8-6.6,1.8h-2.1c-1.4,0-2.7-0.4-3.1-2.2c0,0,0.1-1.6,0.5-2.3l61-105.6
			c0.2-0.3,0.5-0.6,0.8-0.8C71.8,43.9,72.1,43.8,72.5,43.8 M72.5,42.3c-0.7,0-1.3,0.2-1.9,0.5c-0.6,0.3-1.1,0.8-1.4,1.4l-61,105.6
			c-0.6,1-0.7,3-0.6,3.4c0.3,1.3,1.3,3.4,4.6,3.4h2.1c2.6,0,5.1-0.7,7.4-2c2.2-1.3,4.1-3.2,5.4-5.4L77,62.9c1.5-2.6,2.3-5.5,2.3-8.5
			c0-3-0.7-5.9-2.2-8.5l0,0c-0.6-1.1-1.5-2.6-3-3.2C73.6,42.4,73.1,42.3,72.5,42.3L72.5,42.3z"/>
		<path class="st2" d="M54.5,49.5c-0.7-7,0.4-13.7,3.1-18.9c2.2,8.3,1.1,11.8,8.7,17.1C58.8,26.8,71.5,12.2,86.7-1
			c-22.4,59.5,78.8,122.6-2.3,148.5c7.5-5.1,11.9-29.1,12.1-32.3C98.8,79.2,59.2,79.6,54.5,49.5z"/>
		<g>
			<path class="st2" d="M33.1,135.8l5.2-9c-4.7-0.1-10.2,0.6-17.1,3.6L18,136C23,135.1,28.1,135,33.1,135.8z"/>
		</g>
		<path class="st2" d="M0,143.6c32-21.4,56.2,5.4,78.7,3.7c24.6-1.8,43.6-16.4,35.8-40.5c-11.3-30.3-45.1-74.6-83.7-34.4
			c30.5-21.5,56,22,47.2,48.4c-3.8,11.4-17.2,10-27,8C41.2,126.9,28.3,121.2,0,143.6z"/>
		<path class="st1" d="M109.8,156.4c-0.9,0-1.7-0.2-2.5-0.7c-0.7-0.4-1.4-1-1.8-1.8l-9.2-16.6c-0.2-0.4-0.6-0.8-1-1
			c-0.4-0.2-0.9-0.4-1.4-0.4s-1,0.1-1.4,0.4c-0.4,0.2-0.8,0.6-1,1l-9.8,16.9c-0.4,0.6-0.9,1.2-1.6,1.6c-0.7,0.4-1.4,0.6-2.1,0.6
			h-4.4c-0.7,0-1.5-0.2-2.1-0.6c-0.6-0.4-1.2-0.9-1.6-1.6c-0.4-0.6-0.6-1.4-0.6-2.1c0-0.7,0.2-1.5,0.6-2.1l16-27.7
			c0.2-0.4,0.4-0.9,0.4-1.4c0-0.5-0.1-1-0.4-1.4l-9.2-15.9c-0.4-0.7-0.6-1.4-0.6-2.1s0.2-1.5,0.6-2.1l1.6-2.8c0.4-0.8,1-1.4,1.8-1.8
			c0.7-0.4,1.6-0.7,2.5-0.7c0.9,0,1.7,0.2,2.5,0.7c0.7,0.4,1.4,1.1,1.8,1.8l31.9,55.9c0.2,0.4,0.4,0.9,0.4,1.3
			c0,0.5-0.1,0.9-0.3,1.4c-0.2,0.4-0.6,0.8-1,1c-0.4,0.2-0.9,0.3-1.4,0.3L109.8,156.4L109.8,156.4z"/>
		<path class="st1" d="M82.7,94.8c0.7,0,1.4,0.2,2.1,0.6c0.6,0.4,1.2,0.9,1.5,1.5l31.9,55.9c0.2,0.3,0.3,0.6,0.3,1s-0.1,0.7-0.3,1
			c-0.2,0.3-0.4,0.6-0.7,0.7c-0.3,0.2-0.7,0.2-1,0.2l-6.7,0.1c-0.7,0-1.4-0.2-2.1-0.6c-0.6-0.4-1.2-0.9-1.5-1.5L97,137
			c-0.3-0.5-0.8-1-1.3-1.3c-0.5-0.3-1.1-0.5-1.8-0.5s-1.2,0.2-1.8,0.5c-0.5,0.3-1,0.8-1.3,1.3l-9.8,16.9c-0.3,0.5-0.8,1-1.3,1.3
			c-0.5,0.3-1.1,0.5-1.8,0.5h-4.4c-0.6,0-1.2-0.2-1.8-0.5c-0.5-0.3-1-0.8-1.3-1.3c-0.3-0.5-0.5-1.1-0.5-1.8c0-0.6,0.2-1.2,0.5-1.8
			l16-27.7c0.3-0.5,0.5-1.1,0.5-1.8c0-0.6-0.2-1.2-0.5-1.8l-9.2-15.9c-0.3-0.5-0.5-1.1-0.5-1.8c0-0.6,0.2-1.2,0.5-1.8l1.6-2.8
			c0.4-0.6,0.9-1.2,1.5-1.5C81.3,94.9,82,94.8,82.7,94.8 M82.7,93.2c-1,0-2,0.3-2.8,0.8c-0.9,0.5-1.6,1.2-2.1,2.1l-1.6,2.8
			c-0.4,0.8-0.7,1.6-0.7,2.5c0,0.9,0.2,1.8,0.7,2.5l9.2,15.9c0.2,0.3,0.3,0.7,0.3,1c0,0.4-0.1,0.7-0.3,1l-16,27.7
			c-0.4,0.8-0.7,1.6-0.7,2.5c0,0.9,0.2,1.7,0.7,2.5c0.4,0.8,1.1,1.4,1.8,1.8c0.8,0.4,1.6,0.7,2.5,0.7h4.4c0.9,0,1.8-0.2,2.5-0.7
			c0.8-0.4,1.4-1.1,1.8-1.8l9.8-16.9c0.2-0.3,0.4-0.6,0.7-0.7c0.3-0.2,0.7-0.3,1-0.3c0.4,0,0.7,0.1,1,0.3c0.3,0.2,0.6,0.4,0.7,0.7
			l9.2,16.6c0.5,0.9,1.2,1.6,2.1,2.1c0.9,0.5,1.8,0.8,2.8,0.8l6.7-0.1c0.6,0,1.2-0.1,1.8-0.4c0.5-0.3,1-0.7,1.3-1.3
			c0.3-0.5,0.4-1.1,0.4-1.7c0-0.6-0.2-1.2-0.5-1.7L87.7,96.1c-0.5-0.9-1.2-1.6-2.1-2.1C84.7,93.5,83.8,93.2,82.7,93.2L82.7,93.2z"/>
		<path class="st1" d="M32.4,156.4c-0.8,0-1.7-0.2-2.4-0.6c-0.7-0.4-1.3-1-1.8-1.8c-0.4-0.7-0.6-1.6-0.6-2.4c0-0.8,0.2-1.7,0.6-2.4
			l51.2-88.7c0.4-0.7,1-1.3,1.8-1.8c0.7-0.4,1.6-0.6,2.4-0.6c0.8,0,1.7,0.2,2.4,0.6c0.7,0.4,1.3,1,1.8,1.8l15.6,26.9
			c0.4,0.7,0.6,1.6,0.6,2.4s-0.2,1.7-0.6,2.4l-2.8,4.9c-0.4,0.7-1,1.3-1.8,1.8c-0.7,0.4-1.6,0.6-2.4,0.6c-0.8,0-1.7-0.2-2.4-0.6
			c-0.7-0.4-1.3-1-1.8-1.8l-6-10.3c-0.3-0.5-0.7-0.9-1.2-1.2c-0.5-0.3-1.1-0.4-1.6-0.4c-0.6,0-1.1,0.2-1.6,0.4
			c-0.5,0.3-0.9,0.7-1.2,1.2l-29,50.1c-0.3,0.5-0.4,1.1-0.4,1.6c0,0.6,0.2,1.1,0.4,1.6c0.3,0.5,0.7,0.9,1.2,1.2
			c0.5,0.3,1.1,0.4,1.6,0.4h11.9c0.8,0,1.7,0.2,2.4,0.7c0.7,0.4,1.3,1,1.8,1.8c0.4,0.7,0.6,1.6,0.6,2.4c0,0.8-0.2,1.7-0.6,2.4
			l-2.8,4.9c-0.4,0.7-1,1.3-1.8,1.8c-0.7,0.4-1.6,0.6-2.4,0.6H32.4z"/>
		<path class="st1" d="M83.7,58.8c0.7,0,1.4,0.2,2,0.5c0.6,0.4,1.1,0.9,1.5,1.5l15.6,26.9c0.4,0.6,0.5,1.3,0.5,2
			c0,0.7-0.2,1.4-0.5,2l-2.8,4.9c-0.4,0.6-0.9,1.1-1.5,1.5c-0.6,0.4-1.3,0.5-2,0.5c-0.7,0-1.4-0.2-2-0.5c-0.6-0.4-1.1-0.9-1.5-1.5
			l-6-10.3c-0.4-0.6-0.9-1.1-1.5-1.5c-0.6-0.4-1.3-0.5-2-0.5c-0.7,0-1.4,0.2-2,0.5c-0.6,0.4-1.1,0.9-1.5,1.5l-3.8,6.5L51,136.5
			c-0.4,0.6-0.5,1.3-0.5,2c0,0.7,0.2,1.4,0.5,2c0.4,0.6,0.9,1.1,1.5,1.5c0.6,0.4,1.3,0.5,2,0.5h11.9c0.7,0,1.4,0.2,2,0.5
			c0.6,0.4,1.1,0.9,1.5,1.5c0.4,0.6,0.5,1.3,0.5,2c0,0.7-0.2,1.4-0.5,2l-2.8,4.9c-0.4,0.6-0.9,1.1-1.5,1.5c-0.6,0.4-1.3,0.5-2,0.5
			H32.4c-0.7,0-1.4-0.2-2-0.5c-0.6-0.4-1.1-0.9-1.5-1.5c-0.4-0.6-0.5-1.3-0.5-2c0-0.7,0.2-1.4,0.5-2l51.2-88.7
			c0.4-0.6,0.9-1.1,1.5-1.5S83,58.8,83.7,58.8 M83.7,57.3c-1,0-1.9,0.2-2.8,0.7c-0.8,0.5-1.6,1.2-2,2l-51.2,88.7
			c-0.5,0.8-0.7,1.8-0.7,2.8c0,1,0.3,1.9,0.7,2.8c0.5,0.8,1.2,1.5,2,2c0.8,0.5,1.8,0.7,2.8,0.7h31.1c1,0,1.9-0.3,2.8-0.7
			c0.8-0.5,1.5-1.2,2-2l2.8-4.9c0.5-0.8,0.7-1.8,0.7-2.8c0-1-0.3-1.9-0.7-2.8s-1.2-1.5-2-2c-0.8-0.5-1.8-0.7-2.8-0.7H54.5
			c-0.4,0-0.9-0.1-1.3-0.3c-0.4-0.2-0.7-0.5-0.9-0.9c-0.2-0.4-0.3-0.8-0.3-1.3c0-0.4,0.1-0.9,0.3-1.3l25.2-43.6l3.8-6.5
			c0.2-0.4,0.5-0.7,0.9-0.9c0.4-0.2,0.8-0.3,1.3-0.3s0.9,0.1,1.3,0.3c0.4,0.2,0.7,0.5,0.9,0.9l6,10.3c0.5,0.8,1.2,1.5,2,2
			c0.8,0.5,1.8,0.7,2.8,0.7c1,0,1.9-0.3,2.8-0.7c0.8-0.5,1.5-1.2,2-2l2.8-4.9c0.5-0.8,0.7-1.8,0.7-2.8c0-1-0.3-1.9-0.7-2.8
			L88.5,60.1c-0.5-0.8-1.2-1.6-2-2C85.6,57.6,84.6,57.3,83.7,57.3L83.7,57.3z"/>
		<g>
			<path class="st1" d="M139.1,48.9h13.7v69.6h-13.7V48.9z M223.1,112.8c-0.8,0.6-2.2,1.5-4.3,2.6c-2,1.1-4.5,2-7.5,2.8
				c-3,0.8-6.2,1.2-9.8,1.1c-5.5-0.1-10.4-1.1-14.8-2.9c-4.3-1.9-7.9-4.4-11-7.7c-3-3.2-5.2-6.9-6.8-11.1c-1.6-4.2-2.4-8.6-2.4-13.3
				c0-5.3,0.8-10.2,2.4-14.6c1.6-4.4,3.9-8.2,6.9-11.4c3-3.2,6.6-5.7,10.8-7.5c4.2-1.8,8.8-2.6,13.8-2.6c4.7,0,8.8,0.6,12.4,1.9
				c3.6,1.3,6.5,2.6,8.8,4.1l-5.4,13c-1.6-1.2-3.7-2.4-6.3-3.7c-2.6-1.3-5.6-2-9-2c-2.6,0-5.2,0.6-7.7,1.7c-2.4,1.1-4.5,2.6-6.4,4.6
				c-1.8,2-3.3,4.4-4.4,7.1c-1.1,2.6-1.6,5.6-1.6,8.7c0,3.3,0.5,6.4,1.4,9.2c1,2.8,2.4,5.2,4.3,7.2c1.8,2,4,3.5,6.5,4.5
				c2.6,1.1,5.5,1.6,8.7,1.6c3.7,0,6.9-0.6,9.6-1.8s4.7-2.5,6.1-3.8L223.1,112.8z M232.1,48.9H279v13.2h-16.9v56.4h-13.7V62.1h-16.3
				V48.9z M319.7,118.5c4.4-4.5,8.6-8.7,12.6-12.8c4-4.2,7.6-8.2,10.8-12c3.3-3.9,5.8-7.6,7.6-11.2c1.9-3.6,2.9-7.1,2.9-10.5
				c0-1.5-0.3-2.8-0.8-4c-0.5-1.2-1.2-2.2-2.2-3.1c-0.9-0.8-2.1-1.5-3.4-1.9c-1.3-0.5-2.7-0.7-4.3-0.7c-1.6,0-3.1,0.2-4.3,0.7
				c-1.3,0.4-2.3,1-3.2,1.8c-0.8,0.8-1.5,1.6-2,2.5c-0.4,0.9-0.6,1.9-0.6,2.9c0,2.3,0.4,4.3,1.1,6c0.8,1.7,1.8,3.2,3.1,4.6l-9.4,8.6
				c-2.1-1-3.8-2.7-5.3-5c-1.4-2.3-2.5-4.8-3.3-7.3c-0.7-2.6-1.1-4.8-1.1-6.5c0-3.9,1.1-7.6,3.2-11.1c2.2-3.5,5.3-6.4,9.4-8.7
				c4.2-2.3,9.2-3.4,15.2-3.4c4.9,0,9.1,1.1,12.7,3.3c3.6,2.2,6.4,5.1,8.4,8.7c2.1,3.5,3.1,7.3,3.1,11.3c0,3.2-0.5,6.3-1.5,9.2
				c-1,3-2.4,5.9-4.1,8.8c-1.7,2.8-3.6,5.7-5.8,8.5c-2.2,2.8-4.5,5.6-6.8,8.5l-7-2h26.1v14.8H319.7z M409.2,118.6
				c-4,0-7.8-0.7-11.5-2.1c-3.5-1.4-6.7-3.6-9.4-6.5c-2.7-3-4.8-6.7-6.4-11.1c-1.6-4.5-2.3-9.8-2.3-15.9c0-6.8,0.7-12.4,2.2-17
				c1.5-4.6,3.5-8.3,6.2-11c2.7-2.8,5.8-4.7,9.4-5.8c3.6-1.2,7.5-1.8,11.8-1.8c4,0,7.8,0.7,11.4,2.1c3.6,1.4,6.8,3.6,9.4,6.6
				c2.8,2.9,4.9,6.6,6.5,11.1c1.6,4.5,2.3,9.7,2.3,15.8c0,6.3-0.8,11.7-2.3,16.2c-1.6,4.5-3.7,8.2-6.5,11.1
				c-2.8,2.8-5.9,4.9-9.4,6.3C417,118,413.2,118.6,409.2,118.6z M409,103.9c3.5,0,6.3-0.9,8.3-2.8c2-1.9,3.4-4.5,4.1-7.7
				c0.8-3.3,1.3-6.9,1.3-10.8c0-3.9-0.4-7.4-1.3-10.4c-0.8-3-2.2-5.4-4.1-7.2c-2-1.8-4.7-2.8-8.3-2.8c-3.5,0-6.2,0.9-8.2,2.8
				c-2,1.8-3.4,4.3-4.1,7.4c-0.8,3.1-1.2,6.6-1.2,10.5c0,3.9,0.4,7.4,1.2,10.6c0.8,3.2,2.2,5.7,4.1,7.6
				C402.9,103,405.6,103.9,409,103.9z M448.2,118.5c4.4-4.5,8.6-8.7,12.6-12.8c4-4.2,7.6-8.2,10.8-12c3.3-3.9,5.8-7.6,7.6-11.2
				c1.9-3.6,2.9-7.1,2.9-10.5c0-1.5-0.3-2.8-0.8-4c-0.5-1.2-1.2-2.2-2.2-3.1c-0.9-0.8-2.1-1.5-3.4-1.9c-1.3-0.5-2.7-0.7-4.3-0.7
				c-1.6,0-3.1,0.2-4.3,0.7c-1.3,0.4-2.3,1-3.2,1.8c-0.8,0.8-1.5,1.6-2,2.5c-0.4,0.9-0.6,1.9-0.6,2.9c0,2.3,0.4,4.3,1.1,6
				c0.8,1.7,1.8,3.2,3.1,4.6l-9.4,8.6c-2.1-1-3.8-2.7-5.3-5c-1.4-2.3-2.5-4.8-3.3-7.3c-0.7-2.6-1.1-4.8-1.1-6.5
				c0-3.9,1.1-7.6,3.2-11.1c2.2-3.5,5.3-6.4,9.4-8.7c4.2-2.3,9.2-3.4,15.2-3.4c4.9,0,9.1,1.1,12.7,3.3c3.6,2.2,6.4,5.1,8.4,8.7
				c2.1,3.5,3.1,7.3,3.1,11.3c0,3.2-0.5,6.3-1.5,9.2c-1,3-2.4,5.9-4.1,8.8c-1.7,2.8-3.6,5.7-5.8,8.5c-2.2,2.8-4.5,5.6-6.8,8.5l-7-2
				H499v14.8H448.2z M510,118.5c4.4-4.5,8.6-8.7,12.6-12.8c4-4.2,7.6-8.2,10.8-12c3.3-3.9,5.8-7.6,7.6-11.2
				c1.9-3.6,2.9-7.1,2.9-10.5c0-1.5-0.3-2.8-0.8-4c-0.5-1.2-1.2-2.2-2.2-3.1c-0.9-0.8-2-1.5-3.4-1.9c-1.3-0.5-2.7-0.7-4.3-0.7
				c-1.6,0-3.1,0.2-4.3,0.7c-1.3,0.4-2.3,1-3.2,1.8c-0.8,0.8-1.5,1.6-2,2.5c-0.4,0.9-0.6,1.9-0.6,2.9c0,2.3,0.4,4.3,1.1,6
				c0.8,1.7,1.8,3.2,3.1,4.6l-9.4,8.6c-2.1-1-3.8-2.7-5.3-5c-1.4-2.3-2.5-4.8-3.3-7.3c-0.7-2.6-1.1-4.8-1.1-6.5
				c0-3.9,1.1-7.6,3.2-11.1c2.2-3.5,5.3-6.4,9.4-8.7c4.2-2.3,9.2-3.4,15.2-3.4c4.9,0,9.1,1.1,12.7,3.3c3.6,2.2,6.4,5.1,8.4,8.7
				c2.1,3.5,3.1,7.3,3.1,11.3c0,3.2-0.5,6.3-1.5,9.2s-2.4,5.9-4.1,8.8c-1.7,2.8-3.6,5.7-5.8,8.5c-2.2,2.8-4.5,5.6-6.8,8.5l-7-2h26.1
				v14.8H510z"/>
		</g>
		<path class="st1" d="M138.9,150.2v-15.8h6.8c1.3,0,2.3,0.2,3.1,0.6c0.7,0.4,1.3,0.9,1.6,1.6c0.3,0.6,0.5,1.3,0.5,2
			c0,0.7-0.2,1.4-0.5,1.9c-0.3,0.6-0.8,1-1.5,1.3c0.6,0.2,1,0.5,1.4,0.9c0.4,0.4,0.7,0.8,0.8,1.3c0.2,0.5,0.3,1,0.3,1.4
			c0,0.6-0.1,1.1-0.3,1.7c-0.2,0.6-0.5,1.1-0.9,1.5s-1,0.8-1.6,1.1c-0.7,0.3-1.5,0.4-2.5,0.4H138.9z M141.8,147.5h4.4
			c0.6,0,1-0.1,1.3-0.3c0.3-0.2,0.6-0.4,0.7-0.7c0.1-0.3,0.2-0.6,0.2-0.9c0-0.4-0.1-0.7-0.2-1c-0.2-0.3-0.4-0.6-0.8-0.8
			c-0.4-0.2-1-0.3-1.8-0.3h-3.8V147.5z M141.8,140.8h3.5c0.9,0,1.5-0.2,1.9-0.5c0.4-0.3,0.6-0.8,0.6-1.3c0-0.3-0.1-0.6-0.2-0.8
			c-0.1-0.3-0.3-0.5-0.6-0.7c-0.3-0.2-0.7-0.3-1.3-0.3h-4V140.8z M156.2,150.2v-15.8h10.7v2.8h-7.8v3.5h4.6v2.8h-4.6v4h8.2v2.8
			H156.2z M175.6,150.2v-13h-4.5v-2.8H183v2.8h-4.5v13H175.6z M191.3,150.2v-13h-4.5v-2.8h11.9v2.8h-4.5v13H191.3z M203.2,150.2
			v-15.8h10.7v2.8h-7.8v3.5h4.6v2.8h-4.6v4h8.2v2.8H203.2z M219,150.2v-15.8h7.2c1.3,0,2.4,0.2,3.1,0.7c0.8,0.5,1.3,1,1.6,1.8
			c0.3,0.7,0.5,1.5,0.5,2.4c0,0.6-0.1,1.2-0.3,1.8c-0.2,0.6-0.6,1.2-1,1.6c-0.5,0.5-1.1,0.9-1.8,1.1l3.1,6.4h-3.3l-3-6h-3.2v6H219z
			 M221.9,141.5h4.3c0.6,0,1-0.1,1.3-0.3c0.3-0.2,0.6-0.5,0.7-0.8c0.1-0.3,0.2-0.7,0.2-1.1c0-0.3-0.1-0.7-0.2-1
			c-0.1-0.3-0.4-0.6-0.7-0.8c-0.3-0.2-0.8-0.3-1.3-0.3h-4.3V141.5z M243.8,150.2v-15.8h10.5v2.8h-7.6v3.5h4.9v2.8h-4.9v6.8H243.8z
			 M264.8,150.5c-1.3,0-2.5-0.2-3.4-0.7c-0.9-0.5-1.6-1.2-2.1-2.2c-0.5-0.9-0.7-2.1-0.7-3.4v-9.8h2.9v9.8c0,1.2,0.3,2.1,0.8,2.6
			c0.5,0.6,1.4,0.8,2.6,0.8c0.7,0,1.4-0.1,1.9-0.4c0.5-0.2,0.9-0.6,1.1-1.1c0.2-0.5,0.4-1.2,0.4-2v-9.8h2.9v9.8
			c0,1.1-0.2,2.1-0.5,2.9c-0.3,0.8-0.8,1.5-1.4,2c-0.6,0.5-1.2,0.9-2,1.1C266.4,150.4,265.6,150.5,264.8,150.5z M280,150.2v-13h-4.5
			v-2.8h11.9v2.8h-4.5v13H280z M298.1,150.5c-1.3,0-2.5-0.2-3.4-0.7c-0.9-0.5-1.6-1.2-2.1-2.2c-0.5-0.9-0.7-2.1-0.7-3.4v-9.8h2.9
			v9.8c0,1.2,0.3,2.1,0.8,2.6c0.5,0.6,1.4,0.8,2.6,0.8c0.7,0,1.4-0.1,1.9-0.4c0.5-0.2,0.9-0.6,1.1-1.1c0.2-0.5,0.4-1.2,0.4-2v-9.8
			h2.9v9.8c0,1.1-0.2,2.1-0.5,2.9c-0.3,0.8-0.8,1.5-1.4,2c-0.6,0.5-1.2,0.9-2,1.1C299.7,150.4,298.9,150.5,298.1,150.5z
			 M309.8,150.2v-15.8h7.2c1.3,0,2.4,0.2,3.1,0.7c0.8,0.5,1.3,1,1.6,1.8c0.3,0.7,0.5,1.5,0.5,2.4c0,0.6-0.1,1.2-0.4,1.8
			c-0.2,0.6-0.6,1.2-1,1.6s-1.1,0.9-1.8,1.1l3.1,6.4h-3.3l-3-6h-3.2v6H309.8z M312.7,141.5h4.3c0.5,0,1-0.1,1.3-0.3
			c0.3-0.2,0.6-0.5,0.7-0.8c0.1-0.3,0.2-0.7,0.2-1.1c0-0.3-0.1-0.7-0.2-1s-0.4-0.6-0.7-0.8c-0.3-0.2-0.8-0.3-1.3-0.3h-4.3V141.5z
			 M327.2,150.2v-15.8h10.7v2.8h-7.8v3.5h4.6v2.8h-4.6v4h8.2v2.8H327.2z M350.5,150.2v-15.8h2.9v13h7.6v2.8H350.5z M365.1,150.2
			v-15.8h10.7v2.8h-7.8v3.5h4.6v2.8h-4.6v4h8.2v2.8H365.1z M384.5,150.2v-13H380v-2.8H392v2.8h-4.5v13H384.5z M401.4,150.5
			c-1,0-1.9-0.2-2.7-0.5c-0.8-0.3-1.5-0.8-2.1-1.5c-0.6-0.6-1-1.4-1.3-2.3l2.7-1c0.3,0.7,0.8,1.3,1.4,1.8c0.6,0.5,1.3,0.7,2.1,0.7
			c0.8,0,1.4-0.2,1.9-0.5c0.5-0.3,0.7-0.8,0.7-1.5c0-0.4-0.1-0.8-0.4-1.1c-0.3-0.3-0.7-0.6-1.1-0.8c-0.5-0.2-1-0.4-1.6-0.6
			c-0.6-0.2-1.2-0.4-1.8-0.7c-0.6-0.2-1.1-0.5-1.6-0.9c-0.5-0.4-0.9-0.8-1.2-1.3c-0.3-0.5-0.4-1.2-0.4-2c0-0.8,0.2-1.5,0.6-2.1
			c0.4-0.6,1-1.2,1.8-1.5c0.8-0.4,1.7-0.6,2.9-0.6c0.9,0,1.7,0.2,2.4,0.5c0.7,0.3,1.3,0.7,1.8,1.3c0.5,0.5,0.8,1.1,1,1.8l-2.6,0.9
			c-0.2-0.5-0.5-0.9-1-1.2c-0.4-0.3-1-0.5-1.8-0.5c-0.7,0-1.2,0.1-1.6,0.4c-0.4,0.3-0.6,0.7-0.6,1.2c0,0.3,0.1,0.6,0.4,0.9
			c0.3,0.2,0.6,0.4,1,0.6c0.4,0.2,0.9,0.4,1.5,0.6c0.6,0.2,1.2,0.5,1.9,0.7c0.6,0.3,1.2,0.6,1.7,1c0.5,0.4,0.9,0.9,1.2,1.4
			c0.3,0.6,0.5,1.3,0.5,2.1c0,1-0.3,1.9-0.8,2.6c-0.5,0.7-1.2,1.2-2,1.6C403.4,150.3,402.5,150.5,401.4,150.5z M419.4,150.2v-15.8
			h10.5v2.8h-7.6v3.5h4.9v2.8h-4.9v6.8H419.4z M434.1,150.2v-15.8h2.9v13h7.6v2.8H434.1z M451.1,150.2v-6.2l-5.8-9.6h3.3l3.9,6.6
			l4-6.6h3.3l-5.8,9.6v6.2H451.1z M470.5,150.2v-15.8h2.9v6.3h6.7v-6.3h2.9v15.8h-2.9v-6.8h-6.7v6.8H470.5z M488.5,150.2v-15.8h2.9
			v15.8H488.5z M503.3,150.5c-1.2,0-2.3-0.2-3.1-0.7c-0.9-0.5-1.6-1.1-2.1-1.9c-0.6-0.8-1-1.7-1.2-2.6c-0.3-1-0.4-2-0.4-3
			c0-1,0.1-2,0.4-2.9c0.3-1,0.7-1.8,1.3-2.6c0.6-0.8,1.3-1.4,2.1-1.9c0.9-0.5,1.9-0.7,3.1-0.7c1,0,1.9,0.2,2.6,0.5
			c0.7,0.3,1.3,0.7,1.8,1.2c0.5,0.5,0.9,1,1.3,1.6l-2.6,1.5c-0.3-0.5-0.8-1-1.2-1.4c-0.5-0.4-1.1-0.6-1.8-0.6
			c-0.7,0-1.4,0.2-1.9,0.5c-0.5,0.3-0.9,0.8-1.2,1.3c-0.3,0.5-0.5,1.1-0.6,1.8c-0.1,0.6-0.2,1.2-0.2,1.8c0,0.7,0.1,1.3,0.2,2
			c0.1,0.6,0.4,1.2,0.7,1.7c0.3,0.5,0.7,0.9,1.2,1.2c0.5,0.3,1.1,0.4,1.8,0.4c0.5,0,1-0.1,1.4-0.4c0.4-0.2,0.8-0.5,1-0.9
			c0.2-0.4,0.4-0.8,0.4-1.3v-0.3h-2.7V142h5.7v2.3c0,1.3-0.3,2.5-0.8,3.4c-0.5,0.9-1.2,1.6-2.1,2.1
			C505.4,150.3,504.4,150.5,503.3,150.5z M514.2,150.2v-15.8h2.9v6.3h6.7v-6.3h2.9v15.8h-2.9v-6.8h-6.7v6.8H514.2z M532.3,150.2
			v-15.8H543v2.8h-7.8v3.5h4.6v2.8h-4.6v4h8.2v2.8H532.3z M548.1,150.2v-15.8h7.2c1.3,0,2.4,0.2,3.1,0.7c0.8,0.5,1.3,1,1.6,1.8
			c0.3,0.7,0.5,1.5,0.5,2.4c0,0.6-0.1,1.2-0.4,1.8c-0.2,0.6-0.6,1.2-1,1.6c-0.5,0.5-1.1,0.9-1.8,1.1l3.1,6.4h-3.3l-3-6H551v6H548.1z
			 M551,141.5h4.3c0.5,0,1-0.1,1.3-0.3c0.3-0.2,0.6-0.5,0.7-0.8c0.1-0.3,0.2-0.7,0.2-1.1c0-0.3-0.1-0.7-0.2-1s-0.3-0.6-0.7-0.8
			c-0.3-0.2-0.8-0.3-1.3-0.3H551V141.5z"/>
	</g>
</g>
</svg>
