<svg width="567" height="162" viewBox="0 0 567 162" fill="none" xmlns="http://www.w3.org/2000/svg">
<g clip-path="url(#clip0_824_32)">
<path d="M12.2829 156.995C8.6986 156.995 7.63952 154.677 7.33046 153.298C7.23085 152.044 7.4581 150.786 7.99003 149.646L68.9871 43.9939C69.3506 43.3641 69.8753 42.8426 70.5073 42.4829C71.1392 42.1232 71.8556 41.9383 72.5827 41.9473C73.1767 41.9494 73.7646 42.0685 74.3126 42.2978C75.8956 42.9612 76.9207 44.4914 77.5012 45.6635C78.9827 48.3264 79.7501 51.3272 79.729 54.3744C79.7079 57.4216 78.8988 60.4115 77.3806 63.0536L27.4982 149.42C26.1636 151.722 24.2482 153.634 21.9433 154.965C19.6384 156.296 17.0248 156.998 14.3634 157.003L12.2829 156.995Z" fill="white"/>
<path d="M12.2415 155.864C10.1083 155.864 8.81177 154.915 8.38964 153.049C8.34065 152.827 8.44241 151.048 8.92484 150.211L69.9219 44.5629C70.1874 44.1052 70.57 43.7264 71.0303 43.4654C71.4907 43.2044 72.0122 43.0707 72.5413 43.0779C72.9854 43.0792 73.4249 43.1689 73.8341 43.3417C75.1607 43.8958 76.0427 45.3506 76.4459 46.1647C77.8437 48.6603 78.5704 51.4756 78.5552 54.336C78.54 57.1963 77.7834 60.0037 76.3593 62.4843L26.4769 148.847C25.2413 150.978 23.4681 152.747 21.3345 153.979C19.201 155.21 16.7817 155.86 14.3182 155.864H12.2415Z" fill="url(#paint0_linear_824_32)"/>
<path d="M72.5413 43.8318C72.886 43.833 73.2269 43.9035 73.5438 44.0391C74.9082 44.6082 75.7374 46.4475 75.8052 46.553C77.1421 48.9303 77.8368 51.6149 77.8209 54.3423C77.8051 57.0696 77.0792 59.7459 75.7148 62.1075L25.8249 148.47C24.6582 150.489 22.9808 152.166 20.961 153.331C18.9412 154.497 16.6503 155.111 14.3182 155.111H12.2415C10.8621 155.111 9.53542 154.689 9.1246 152.883C9.1246 152.861 9.18867 151.266 9.57688 150.588L70.5777 44.9399C70.7759 44.5964 71.0626 44.3124 71.408 44.1175C71.7534 43.9225 72.1448 43.8239 72.5413 43.8318M72.5413 42.3242C71.8799 42.3167 71.2284 42.4852 70.6536 42.8124C70.0787 43.1395 69.6012 43.6136 69.2698 44.1861L8.27281 149.834C7.69239 150.84 7.56425 152.812 7.6547 153.226C7.94115 154.496 8.92108 156.618 12.2415 156.618H14.3182C16.9144 156.614 19.464 155.929 21.7126 154.631C23.9612 153.334 25.8301 151.469 27.1327 149.224L77.0151 62.8613C78.4998 60.2741 79.2904 57.3469 79.3102 54.364C79.33 51.381 78.5783 48.4436 77.1281 45.8369V45.8369C76.5741 44.7062 75.6205 43.2702 74.1356 42.6559C73.6337 42.4428 73.0941 42.3326 72.5488 42.3317L72.5413 42.3242Z" fill="white"/>
<path fill-rule="evenodd" clip-rule="evenodd" d="M54.5407 49.5042C53.8547 42.5165 54.959 35.7852 57.6237 30.584C59.8625 38.8493 58.7544 42.3884 66.3677 47.7328C58.7695 26.8188 71.4784 12.1989 86.6787 -1C64.3212 58.5196 165.484 121.556 84.357 147.497C91.8422 142.353 96.218 118.386 96.4177 115.224C98.8223 79.1622 59.2481 79.6447 54.5407 49.5042Z" fill="url(#paint1_linear_824_32)"/>
<g filter="url(#filter0_d_824_32)">
<path fill-rule="evenodd" clip-rule="evenodd" d="M33.1331 135.813L38.372 126.768C33.7135 126.628 28.1769 127.405 21.2759 130.345L18.0157 135.998C23.0088 135.089 28.1193 135.026 33.1331 135.813Z" fill="#394E99"/>
</g>
<path fill-rule="evenodd" clip-rule="evenodd" d="M0 143.604C31.9835 122.163 56.1916 148.979 78.6735 147.339C103.274 145.541 122.269 130.982 114.479 106.796C103.209 76.5429 69.4018 32.1708 30.7548 72.3706C61.2835 50.8347 86.7919 94.3664 77.9875 120.787C74.1997 132.162 60.801 130.763 50.9866 128.826C41.1722 126.889 28.3427 121.194 0 143.604Z" fill="url(#paint2_linear_824_32)"/>
<path d="M109.839 156.437C108.977 156.436 108.131 156.209 107.384 155.778C106.638 155.348 106.017 154.729 105.584 153.984L96.3689 137.359C96.1245 136.939 95.7742 136.59 95.3529 136.348C94.9316 136.106 94.4541 135.978 93.9681 135.978C93.4821 135.978 93.0046 136.106 92.5834 136.348C92.1621 136.59 91.8117 136.939 91.5673 137.359L81.817 154.24C81.4402 154.89 80.8994 155.43 80.2486 155.806C79.5978 156.182 78.8598 156.38 78.1083 156.381H73.7212C72.9719 156.379 72.2362 156.181 71.5874 155.806C70.9387 155.431 70.3996 154.892 70.024 154.244C69.6483 153.596 69.4492 152.86 69.4466 152.111C69.4439 151.362 69.6377 150.625 70.0088 149.974L86.0081 122.249C86.2526 121.827 86.3814 121.348 86.3814 120.86C86.3814 120.373 86.2526 119.893 86.0081 119.471L76.8419 103.589C76.4662 102.937 76.2684 102.198 76.2684 101.446C76.2684 100.694 76.4662 99.9552 76.8419 99.3036L78.4852 96.4581C78.9133 95.7067 79.5327 95.082 80.2804 94.6475C81.0281 94.213 81.8775 93.9841 82.7422 93.9841C83.607 93.9841 84.4564 94.213 85.2041 94.6475C85.9518 95.082 86.5712 95.7067 86.9993 96.4581L118.862 152.341C119.105 152.75 119.238 153.215 119.247 153.69C119.256 154.166 119.142 154.636 118.915 155.054C118.67 155.469 118.319 155.812 117.898 156.045C117.476 156.278 117 156.394 116.518 156.381L109.839 156.441V156.437Z" fill="url(#paint3_linear_824_32)"/>
<path d="M82.7401 94.7695C83.4709 94.7654 84.1896 94.9554 84.8227 95.3203C85.4558 95.6853 85.9806 96.2119 86.3433 96.8462L118.206 152.725C118.398 153.018 118.505 153.359 118.514 153.709C118.523 154.059 118.434 154.405 118.258 154.708C118.081 155.01 117.824 155.258 117.514 155.422C117.205 155.586 116.856 155.661 116.506 155.638L109.839 155.699C109.108 155.7 108.39 155.509 107.758 155.143C107.125 154.778 106.6 154.252 106.236 153.618L97.0283 137.016C96.7181 136.48 96.2724 136.035 95.7359 135.725C95.1994 135.416 94.591 135.253 93.9717 135.253C93.3524 135.253 92.7439 135.416 92.2074 135.725C91.6709 136.035 91.2252 136.48 90.915 137.016L81.1647 153.897C80.8547 154.433 80.409 154.879 79.8725 155.188C79.336 155.498 78.7275 155.661 78.1081 155.661H73.721C73.1043 155.659 72.4989 155.495 71.9652 155.186C71.4314 154.877 70.9879 154.433 70.6788 153.9C70.3696 153.366 70.2056 152.761 70.2031 152.144C70.2006 151.527 70.3596 150.921 70.6644 150.384L86.6787 122.66C86.989 122.123 87.1524 121.514 87.1524 120.894C87.1524 120.274 86.989 119.665 86.6787 119.128L77.4937 103.212C77.1845 102.675 77.0218 102.066 77.0218 101.446C77.0218 100.827 77.1845 100.218 77.4937 99.6805L79.137 96.8349C79.501 96.2014 80.026 95.6753 80.6587 95.31C81.2914 94.9446 82.0095 94.753 82.7401 94.7545M82.7401 93.2469C81.746 93.2428 80.7686 93.5026 79.9078 93.9999C79.0469 94.4972 78.3335 95.2141 77.8405 96.0774L76.2085 98.9154C75.7659 99.682 75.5329 100.552 75.5329 101.437C75.5329 102.322 75.7659 103.192 76.2085 103.958L85.3897 119.837C85.5674 120.145 85.6609 120.494 85.6609 120.849C85.6609 121.204 85.5674 121.553 85.3897 121.861L69.3754 149.585C68.9382 150.351 68.7095 151.218 68.7122 152.099C68.7148 152.981 68.9487 153.846 69.3904 154.609C69.8321 155.372 70.4662 156.006 71.2295 156.447C71.9927 156.888 72.8583 157.121 73.7398 157.123H78.093C78.9771 157.122 79.8455 156.889 80.6113 156.447C81.3772 156.005 82.0138 155.37 82.4575 154.606L92.2078 137.725C92.3811 137.414 92.6351 137.156 92.943 136.978C93.2509 136.801 93.6011 136.709 93.9566 136.714C94.3097 136.712 94.6572 136.803 94.9636 136.979C95.2701 137.154 95.5247 137.408 95.7016 137.713L104.902 154.297C105.401 155.155 106.115 155.867 106.975 156.364C107.834 156.861 108.809 157.124 109.801 157.127L116.48 157.067C117.095 157.082 117.703 156.931 118.24 156.631C118.777 156.331 119.224 155.892 119.533 155.36C119.825 154.826 119.974 154.225 119.963 153.616C119.953 153.007 119.784 152.412 119.473 151.888L87.6549 96.0849C87.1628 95.2202 86.4498 94.5018 85.5889 94.0032C84.728 93.5045 83.7501 93.2435 82.7552 93.2469H82.7401Z" fill="white"/>
<path d="M32.4321 156.377C31.5903 156.375 30.7639 156.151 30.0357 155.729C29.3075 155.307 28.7031 154.7 28.2831 153.971C27.8632 153.241 27.6424 152.414 27.6429 151.572C27.6435 150.731 27.8653 149.904 28.2863 149.175L79.5141 60.4719C79.9349 59.7415 80.5407 59.1349 81.2705 58.7132C82.0003 58.2914 82.8284 58.0693 83.6713 58.0693C84.5142 58.0693 85.3422 58.2914 86.072 58.7132C86.8018 59.1349 87.4076 59.7415 87.8284 60.4719L103.383 87.4125C103.803 88.1435 104.024 88.972 104.024 89.8152C104.024 90.6584 103.803 91.4869 103.383 92.2179L100.541 97.1364C100.12 97.8668 99.5146 98.4734 98.7848 98.8951C98.055 99.3169 97.2269 99.539 96.384 99.539C95.5411 99.539 94.7131 99.3169 93.9833 98.8951C93.2535 98.4734 92.6477 97.8668 92.2268 97.1364L86.2568 86.8019C85.967 86.3019 85.5508 85.8869 85.0501 85.5984C84.5493 85.3099 83.9816 85.158 83.4037 85.158C82.8258 85.158 82.258 85.3099 81.7573 85.5984C81.2565 85.8869 80.8404 86.3019 80.5506 86.8019L51.5973 136.929C51.3082 137.43 51.156 137.998 51.156 138.576C51.156 139.155 51.3083 139.723 51.5974 140.223C51.8866 140.724 52.3025 141.14 52.8033 141.429C53.3041 141.718 53.8722 141.87 54.4504 141.87H66.383C67.2249 141.873 68.0513 142.097 68.7794 142.52C69.5074 142.943 70.1116 143.55 70.5315 144.279C70.9513 145.009 71.1721 145.836 71.1716 146.678C71.1712 147.52 70.9495 148.347 70.5289 149.077L67.6908 153.976C67.2693 154.703 66.6649 155.308 65.9376 155.729C65.2103 156.15 64.3854 156.373 63.545 156.377H32.4321Z" fill="url(#paint4_linear_824_32)"/>
<path d="M83.6714 58.8134C84.3827 58.8092 85.0824 58.9945 85.6984 59.3502C86.3144 59.7059 86.8246 60.2192 87.1766 60.8373L102.731 87.7779C103.087 88.3938 103.274 89.0925 103.274 89.8037C103.274 90.5149 103.087 91.2136 102.731 91.8296L99.8893 96.7481C99.534 97.3632 99.023 97.874 98.4077 98.2292C97.7925 98.5843 97.0946 98.7713 96.3842 98.7713C95.6738 98.7713 94.9759 98.5843 94.3606 98.2292C93.7453 97.874 93.2344 97.3632 92.879 96.7481L86.909 86.4098C86.5536 85.7946 86.0427 85.2838 85.4274 84.9287C84.8121 84.5735 84.1142 84.3866 83.4038 84.3866C82.6934 84.3866 81.9955 84.5735 81.3803 84.9287C80.765 85.2838 80.254 85.7946 79.8987 86.4098L76.1297 92.915L50.9568 136.537C50.6015 137.152 50.4145 137.85 50.4144 138.561C50.4144 139.271 50.6014 139.969 50.9567 140.585C51.3119 141.2 51.8228 141.711 52.4381 142.066C53.0534 142.422 53.7514 142.609 54.4619 142.609H66.3945C67.1055 142.609 67.8041 142.796 68.42 143.151C69.0358 143.507 69.5471 144.018 69.9024 144.634C70.2578 145.25 70.4446 145.949 70.4441 146.66C70.4436 147.371 70.2558 148.069 69.8996 148.684L67.0616 153.584C66.706 154.199 66.195 154.71 65.5798 155.065C64.9646 155.42 64.2668 155.608 63.5564 155.608H32.4323C31.7214 155.609 31.023 155.422 30.4072 155.067C29.7913 154.712 29.2799 154.201 28.9242 153.586C28.5685 152.97 28.3812 152.272 28.381 151.561C28.3809 150.85 28.5679 150.152 28.9234 149.536L80.1663 60.8486C80.5183 60.2305 81.0285 59.7172 81.6445 59.3615C82.2605 59.0058 82.9601 58.8205 83.6714 58.8247M83.6714 57.3171C82.6929 57.3089 81.7299 57.5621 80.8818 58.0504C80.0338 58.5387 79.3314 59.2444 78.8471 60.0948L27.6193 148.798C27.1316 149.642 26.8749 150.6 26.875 151.576C26.8751 152.551 27.1319 153.509 27.6197 154.354C28.1075 155.198 28.8091 155.9 29.6539 156.387C30.4987 156.875 31.4569 157.131 32.4323 157.131H63.5451C64.5197 157.129 65.4769 156.872 66.3209 156.384C67.1648 155.897 67.866 155.196 68.3543 154.353L71.1961 149.453C71.6835 148.608 71.94 147.65 71.9398 146.675C71.9397 145.699 71.6828 144.741 71.1951 143.896C70.7074 143.051 70.0061 142.35 69.1614 141.862C68.3168 141.374 67.3586 141.117 66.3832 141.116H54.4506C54.0046 141.117 53.5664 140.999 53.1801 140.776C52.7937 140.554 52.4729 140.233 52.2498 139.847C52.0267 139.461 51.9092 139.022 51.9092 138.576C51.9091 138.13 52.0265 137.692 52.2495 137.306L77.4489 93.6839L81.2178 87.1786C81.4406 86.7919 81.7614 86.4708 82.1478 86.2474C82.5342 86.0241 82.9726 85.9065 83.4189 85.9065C83.8652 85.9065 84.3036 86.0241 84.69 86.2474C85.0764 86.4708 85.3972 86.7919 85.62 87.1786L91.5863 97.5132C92.0744 98.3576 92.7761 99.0587 93.6209 99.5462C94.4657 100.034 95.4239 100.29 96.3992 100.29C97.3746 100.29 98.3328 100.034 99.1776 99.5462C100.022 99.0587 100.724 98.3576 101.212 97.5132L104.05 92.5947C104.536 91.7489 104.792 90.7905 104.792 89.815C104.792 88.8396 104.536 87.8812 104.05 87.0354L88.4844 60.0948C88.0011 59.2461 87.3005 58.5414 86.4546 58.0532C85.6087 57.5651 84.6481 57.311 83.6714 57.3171V57.3171Z" fill="white"/>
<g filter="url(#filter1_d_824_32)">
<path d="M139.14 48.9022H152.857V118.533H139.14V48.9022ZM223.052 112.762C222.295 113.392 220.876 114.244 218.795 115.316C216.776 116.388 214.285 117.334 211.321 118.154C208.356 118.974 205.077 119.353 201.482 119.29C195.994 119.163 191.075 118.186 186.723 116.357C182.434 114.465 178.776 111.91 175.749 108.694C172.784 105.477 170.514 101.787 168.937 97.6246C167.36 93.4619 166.572 89.0154 166.572 84.2851C166.572 78.9871 167.36 74.1306 168.937 69.7156C170.577 65.3007 172.879 61.4849 175.843 58.2682C178.871 55.0516 182.466 52.5603 186.628 50.7943C190.791 49.0283 195.395 48.1453 200.441 48.1453C205.108 48.1453 209.239 48.776 212.834 50.0374C216.43 51.2989 219.362 52.6549 221.633 54.1055L216.24 67.0667C214.664 65.8683 212.551 64.6384 209.902 63.377C207.316 62.0525 204.32 61.3903 200.914 61.3903C198.265 61.3903 195.711 61.9579 193.251 63.0932C190.854 64.1654 188.71 65.7106 186.818 67.7289C184.989 69.7472 183.538 72.1124 182.466 74.8244C181.393 77.4734 180.857 80.3747 180.857 83.5282C180.857 86.871 181.33 89.9299 182.276 92.7051C183.286 95.4802 184.705 97.8769 186.534 99.8952C188.363 101.85 190.539 103.364 193.062 104.436C195.648 105.509 198.549 106.045 201.765 106.045C205.487 106.045 208.672 105.445 211.321 104.247C213.97 103.049 215.988 101.787 217.376 100.463L223.052 112.762ZM232.065 48.9022H278.99V62.1471H262.055V118.533H248.337V62.1471H232.065V48.9022ZM319.735 118.533C324.119 114.078 328.326 109.799 332.357 105.698C336.388 101.526 339.994 97.5304 343.177 93.7118C346.429 89.8225 348.975 86.0746 350.814 82.4681C352.723 78.8617 353.678 75.3613 353.678 71.967C353.678 70.482 353.395 69.1384 352.829 67.9362C352.334 66.7341 351.592 65.7087 350.602 64.8602C349.682 64.0116 348.551 63.3751 347.207 62.9509C345.934 62.4558 344.485 62.2083 342.858 62.2083C341.232 62.2083 339.782 62.4558 338.509 62.9509C337.237 63.3751 336.176 63.9762 335.327 64.7541C334.479 65.5319 333.807 66.3805 333.312 67.2998C332.888 68.2191 332.675 69.1738 332.675 70.1638C332.675 72.4266 333.029 74.442 333.736 76.2099C334.514 77.907 335.539 79.4274 336.812 80.771L327.372 89.3628C325.321 88.3728 323.553 86.711 322.068 84.3774C320.654 82.0439 319.558 79.6042 318.78 77.0585C318.073 74.442 317.719 72.2852 317.719 70.5881C317.719 66.6987 318.78 62.9862 320.901 59.4505C323.094 55.9147 326.24 53.0154 330.342 50.7525C334.514 48.4897 339.57 47.3582 345.51 47.3582C350.39 47.3582 354.632 48.4543 358.239 50.6465C361.845 52.8386 364.639 55.7379 366.619 59.3444C368.669 62.8801 369.695 66.6634 369.695 70.6941C369.695 73.8763 369.2 76.9524 368.21 79.9224C367.22 82.8924 365.841 85.8271 364.073 88.7264C362.376 91.555 360.431 94.3836 358.239 97.2122C356.047 99.9701 353.784 102.799 351.45 105.698L344.449 103.683H370.543V118.533H319.735ZM409.154 118.639C405.124 118.639 401.305 117.932 397.699 116.517C394.163 115.103 391.016 112.946 388.258 110.047C385.571 107.077 383.45 103.364 381.894 98.9093C380.338 94.3836 379.56 89.08 379.56 82.9985C379.56 76.2099 380.303 70.5527 381.788 66.0269C383.273 61.4305 385.323 57.7533 387.94 54.9954C390.627 52.2376 393.774 50.2929 397.38 49.1615C400.987 47.9593 404.911 47.3582 409.154 47.3582C413.185 47.3582 416.968 48.0654 420.504 49.4797C424.111 50.894 427.257 53.0861 429.945 56.0562C432.702 58.9555 434.859 62.668 436.415 67.1937C437.971 71.6488 438.749 76.917 438.749 82.9985C438.749 89.2921 437.971 94.7018 436.415 99.2276C434.859 103.753 432.702 107.466 429.945 110.365C427.187 113.194 424.04 115.28 420.504 116.623C416.968 117.967 413.185 118.639 409.154 118.639ZM409.048 103.895C412.584 103.895 415.342 102.975 417.322 101.137C419.302 99.2276 420.681 96.6465 421.459 93.3936C422.307 90.1407 422.732 86.5343 422.732 82.5742C422.732 78.6849 422.307 75.2199 421.459 72.1791C420.681 69.1384 419.302 66.7341 417.322 64.9662C415.342 63.1276 412.584 62.2083 409.048 62.2083C405.583 62.2083 402.861 63.1276 400.881 64.9662C398.901 66.8048 397.522 69.2798 396.744 72.3913C395.966 75.5027 395.577 79.0031 395.577 82.8924C395.577 86.7818 395.966 90.3175 396.744 93.4997C397.522 96.6818 398.901 99.2276 400.881 101.137C402.861 102.975 405.583 103.895 409.048 103.895ZM448.182 118.533C452.566 114.078 456.773 109.799 460.804 105.698C464.835 101.526 468.441 97.5304 471.623 93.7118C474.876 89.8225 477.422 86.0746 479.261 82.4681C481.17 78.8617 482.125 75.3613 482.125 71.967C482.125 70.482 481.842 69.1384 481.276 67.9362C480.781 66.7341 480.039 65.7087 479.049 64.8602C478.129 64.0116 476.998 63.3751 475.654 62.9509C474.381 62.4558 472.932 62.2083 471.305 62.2083C469.679 62.2083 468.229 62.4558 466.956 62.9509C465.683 63.3751 464.623 63.9762 463.774 64.7541C462.926 65.5319 462.254 66.3805 461.759 67.2998C461.334 68.2191 461.122 69.1738 461.122 70.1638C461.122 72.4266 461.476 74.442 462.183 76.2099C462.961 77.907 463.986 79.4274 465.259 80.771L455.819 89.3628C453.768 88.3728 452 86.711 450.515 84.3774C449.101 82.0439 448.005 79.6042 447.227 77.0585C446.52 74.442 446.166 72.2852 446.166 70.5881C446.166 66.6987 447.227 62.9862 449.348 59.4505C451.54 55.9147 454.687 53.0154 458.789 50.7525C462.961 48.4897 468.017 47.3582 473.957 47.3582C478.836 47.3582 483.079 48.4543 486.686 50.6465C490.292 52.8386 493.085 55.7379 495.065 59.3444C497.116 62.8801 498.142 66.6634 498.142 70.6941C498.142 73.8763 497.647 76.9524 496.657 79.9224C495.667 82.8924 494.288 85.8271 492.52 88.7264C490.823 91.555 488.878 94.3836 486.686 97.2122C484.494 99.9701 482.231 102.799 479.897 105.698L472.896 103.683H498.99V118.533H448.182ZM510.022 118.533C514.407 114.078 518.614 109.799 522.645 105.698C526.676 101.526 530.282 97.5304 533.464 93.7118C536.717 89.8225 539.263 86.0746 541.102 82.4681C543.011 78.8617 543.966 75.3613 543.966 71.967C543.966 70.482 543.683 69.1384 543.117 67.9362C542.622 66.7341 541.879 65.7087 540.889 64.8602C539.97 64.0116 538.839 63.3751 537.495 62.9509C536.222 62.4558 534.773 62.2083 533.146 62.2083C531.52 62.2083 530.07 62.4558 528.797 62.9509C527.524 63.3751 526.464 63.9762 525.615 64.7541C524.767 65.5319 524.095 66.3805 523.6 67.2998C523.175 68.2191 522.963 69.1738 522.963 70.1638C522.963 72.4266 523.317 74.442 524.024 76.2099C524.802 77.907 525.827 79.4274 527.1 80.771L517.66 89.3628C515.609 88.3728 513.841 86.711 512.356 84.3774C510.942 82.0439 509.846 79.6042 509.068 77.0585C508.361 74.442 508.007 72.2852 508.007 70.5881C508.007 66.6987 509.068 62.9862 511.189 59.4505C513.381 55.9147 516.528 53.0154 520.63 50.7525C524.802 48.4897 529.858 47.3582 535.798 47.3582C540.677 47.3582 544.92 48.4543 548.527 50.6465C552.133 52.8386 554.926 55.7379 556.906 59.3444C558.957 62.8801 559.982 66.6634 559.982 70.6941C559.982 73.8763 559.487 76.9524 558.497 79.9224C557.507 82.8924 556.129 85.8271 554.361 88.7264C552.664 91.555 550.719 94.3836 548.527 97.2122C546.335 99.9701 544.072 102.799 541.738 105.698L534.737 103.683H560.831V118.533H510.022Z" fill="url(#paint5_linear_824_32)"/>
</g>
<path d="M138.854 150.25V134.437H145.676C146.964 134.437 147.981 134.644 148.726 135.058C149.472 135.465 150.002 135.996 150.319 136.651C150.635 137.298 150.793 137.976 150.793 138.684C150.793 139.392 150.639 140.039 150.33 140.627C150.021 141.206 149.517 141.654 148.816 141.971C149.389 142.174 149.859 142.468 150.228 142.852C150.605 143.228 150.88 143.657 151.053 144.139C151.234 144.614 151.324 145.096 151.324 145.585C151.324 146.142 151.23 146.7 151.042 147.257C150.861 147.807 150.563 148.307 150.149 148.759C149.735 149.211 149.185 149.572 148.5 149.843C147.822 150.114 146.987 150.25 145.993 150.25H138.854ZM141.78 147.505H146.185C146.749 147.505 147.19 147.407 147.506 147.212C147.83 147.016 148.056 146.771 148.184 146.477C148.319 146.176 148.387 145.879 148.387 145.585C148.387 145.224 148.308 144.881 148.15 144.557C147.999 144.226 147.717 143.955 147.303 143.744C146.896 143.533 146.305 143.428 145.53 143.428H141.78V147.505ZM141.78 140.796H145.315C146.173 140.796 146.806 140.63 147.213 140.299C147.627 139.96 147.834 139.512 147.834 138.955C147.834 138.669 147.781 138.39 147.676 138.119C147.57 137.84 147.367 137.611 147.066 137.43C146.765 137.249 146.32 137.159 145.733 137.159H141.78V140.796ZM156.17 150.25V134.437H166.855V137.215H159.096V140.694H163.693V143.473H159.096V147.449H167.33V150.25H156.17ZM175.574 150.25V137.249H171.09V134.437H183.007V137.249H178.5V150.25H175.574ZM191.28 150.25V137.249H186.796V134.437H198.712V137.249H194.205V150.25H191.28ZM203.176 150.25V134.437H213.861V137.215H206.102V140.694H210.699V143.473H206.102V147.449H214.336V150.25H203.176ZM218.992 150.25V134.437H226.187C227.505 134.437 228.544 134.667 229.304 135.126C230.072 135.578 230.618 136.176 230.942 136.922C231.273 137.667 231.439 138.469 231.439 139.328C231.439 139.923 231.322 140.525 231.089 141.135C230.863 141.745 230.517 142.295 230.05 142.784C229.583 143.273 228.996 143.635 228.288 143.868L231.405 150.25H228.118L225.125 144.264H221.917V150.25H218.992ZM221.917 141.508H226.232C226.782 141.508 227.215 141.406 227.531 141.203C227.855 140.992 228.084 140.721 228.22 140.389C228.355 140.058 228.423 139.708 228.423 139.339C228.423 139.008 228.359 138.676 228.231 138.345C228.103 138.014 227.881 137.739 227.565 137.52C227.249 137.302 226.804 137.193 226.232 137.193H221.917V141.508ZM243.829 150.25V134.437H254.344V137.215H246.754V140.694H251.611V143.473H246.754V150.25H243.829ZM264.775 150.521C263.449 150.521 262.316 150.276 261.375 149.787C260.441 149.29 259.726 148.571 259.229 147.63C258.739 146.688 258.495 145.551 258.495 144.218V134.437H261.42V144.218C261.42 145.416 261.687 146.297 262.222 146.861C262.757 147.426 263.607 147.709 264.775 147.709C265.513 147.709 266.13 147.592 266.627 147.358C267.124 147.125 267.497 146.752 267.745 146.24C267.994 145.721 268.118 145.047 268.118 144.218V134.437H271.055V144.218C271.055 145.333 270.889 146.289 270.558 147.087C270.234 147.886 269.782 148.541 269.202 149.053C268.63 149.557 267.964 149.93 267.203 150.171C266.443 150.404 265.633 150.521 264.775 150.521ZM279.953 150.25V137.249H275.469V134.437H287.385V137.249H282.879V150.25H279.953ZM298.061 150.521C296.735 150.521 295.602 150.276 294.661 149.787C293.727 149.29 293.012 148.571 292.515 147.63C292.025 146.688 291.781 145.551 291.781 144.218V134.437H294.706V144.218C294.706 145.416 294.973 146.297 295.508 146.861C296.043 147.426 296.894 147.709 298.061 147.709C298.799 147.709 299.416 147.592 299.913 147.358C300.41 147.125 300.783 146.752 301.031 146.24C301.28 145.721 301.404 145.047 301.404 144.218V134.437H304.341V144.218C304.341 145.333 304.175 146.289 303.844 147.087C303.52 147.886 303.068 148.541 302.488 149.053C301.916 149.557 301.25 149.93 300.489 150.171C299.729 150.404 298.919 150.521 298.061 150.521ZM309.783 150.25V134.437H316.978C318.296 134.437 319.335 134.667 320.095 135.126C320.863 135.578 321.409 136.176 321.733 136.922C322.065 137.667 322.23 138.469 322.23 139.328C322.23 139.923 322.113 140.525 321.88 141.135C321.654 141.745 321.308 142.295 320.841 142.784C320.374 143.273 319.787 143.635 319.079 143.868L322.196 150.25H318.909L315.916 144.264H312.708V150.25H309.783ZM312.708 141.508H317.023C317.573 141.508 318.006 141.406 318.322 141.203C318.646 140.992 318.876 140.721 319.011 140.389C319.147 140.058 319.214 139.708 319.214 139.339C319.214 139.008 319.15 138.676 319.022 138.345C318.894 138.014 318.672 137.739 318.356 137.52C318.04 137.302 317.595 137.193 317.023 137.193H312.708V141.508ZM327.165 150.25V134.437H337.85V137.215H330.09V140.694H334.688V143.473H330.09V147.449H338.325V150.25H327.165ZM350.524 150.25V134.437H353.449V147.415H361.096V150.25H350.524ZM365.126 150.25V134.437H375.811V137.215H368.052V140.694H372.649V143.473H368.052V147.449H376.286V150.25H365.126ZM384.531 150.25V137.249H380.046V134.437H391.963V137.249H387.456V150.25H384.531ZM401.401 150.521C400.414 150.521 399.518 150.348 398.713 150.002C397.907 149.655 397.214 149.166 396.634 148.533C396.062 147.893 395.633 147.14 395.347 146.274L398.001 145.291C398.34 146.014 398.811 146.609 399.413 147.076C400.023 147.535 400.708 147.765 401.469 147.765C402.274 147.765 402.914 147.596 403.389 147.257C403.871 146.918 404.112 146.425 404.112 145.777C404.112 145.333 403.969 144.964 403.682 144.67C403.404 144.369 403.024 144.113 402.542 143.902C402.067 143.684 401.529 143.473 400.926 143.27C400.347 143.074 399.763 142.855 399.176 142.615C398.588 142.374 398.05 142.08 397.561 141.734C397.071 141.38 396.676 140.935 396.375 140.401C396.081 139.866 395.934 139.211 395.934 138.435C395.934 137.66 396.141 136.948 396.555 136.301C396.969 135.653 397.568 135.137 398.351 134.753C399.142 134.362 400.098 134.166 401.22 134.166C402.139 134.166 402.952 134.324 403.66 134.64C404.375 134.949 404.966 135.371 405.433 135.905C405.9 136.44 406.224 137.046 406.405 137.724L403.784 138.593C403.573 138.119 403.249 137.724 402.813 137.408C402.384 137.084 401.8 136.922 401.062 136.922C400.369 136.922 399.831 137.057 399.447 137.328C399.063 137.6 398.871 137.984 398.871 138.481C398.871 138.819 398.999 139.109 399.255 139.35C399.518 139.584 399.868 139.795 400.305 139.983C400.749 140.171 401.25 140.363 401.807 140.559C402.432 140.77 403.054 141.011 403.671 141.282C404.296 141.545 404.861 141.869 405.365 142.253C405.877 142.637 406.288 143.115 406.597 143.688C406.905 144.252 407.06 144.945 407.06 145.766C407.06 146.775 406.807 147.633 406.303 148.341C405.806 149.049 405.132 149.591 404.281 149.968C403.43 150.337 402.47 150.521 401.401 150.521ZM419.366 150.25V134.437H429.882V137.215H422.292V140.694H427.149V143.473H422.292V150.25H419.366ZM434.145 150.25V134.437H437.071V147.415H444.717V150.25H434.145ZM451.101 150.25V144.083L445.307 134.437H448.605L452.547 141.033L456.5 134.437H459.776L454.004 144.06V150.25H451.101ZM470.496 150.25V134.437H473.421V140.706H480.108V134.437H483.033V150.25H480.108V143.496H473.421V150.25H470.496ZM488.54 150.25V134.437H491.465V150.25H488.54ZM503.311 150.521C502.099 150.521 501.056 150.295 500.183 149.843C499.309 149.384 498.598 148.767 498.048 147.991C497.498 147.208 497.088 146.331 496.817 145.359C496.553 144.38 496.421 143.375 496.421 142.343C496.421 141.357 496.557 140.382 496.828 139.418C497.107 138.454 497.525 137.577 498.082 136.786C498.647 135.996 499.362 135.363 500.228 134.889C501.094 134.407 502.122 134.166 503.311 134.166C504.32 134.166 505.171 134.324 505.864 134.64C506.564 134.956 507.152 135.371 507.626 135.883C508.108 136.387 508.526 136.922 508.88 137.487L506.305 138.955C505.958 138.42 505.548 137.953 505.074 137.554C504.607 137.155 504.019 136.956 503.311 136.956C502.574 136.956 501.956 137.121 501.459 137.453C500.97 137.784 500.578 138.217 500.284 138.752C499.991 139.286 499.78 139.87 499.652 140.502C499.524 141.127 499.46 141.741 499.46 142.343C499.46 143.029 499.531 143.691 499.674 144.331C499.818 144.971 500.043 145.547 500.352 146.06C500.661 146.572 501.06 146.978 501.549 147.279C502.039 147.573 502.626 147.72 503.311 147.72C503.831 147.72 504.302 147.603 504.723 147.37C505.153 147.136 505.491 146.824 505.74 146.432C505.988 146.033 506.113 145.585 506.113 145.088V144.794H503.424V142.027H509.128V144.309C509.128 145.649 508.869 146.782 508.349 147.709C507.837 148.627 507.141 149.328 506.259 149.809C505.386 150.284 504.403 150.521 503.311 150.521ZM514.237 150.25V134.437H517.162V140.706H523.849V134.437H526.775V150.25H523.849V143.496H517.162V150.25H514.237ZM532.281 150.25V134.437H542.966V137.215H535.206V140.694H539.803V143.473H535.206V147.449H543.44V150.25H532.281ZM548.097 150.25V134.437H555.292C556.609 134.437 557.648 134.667 558.409 135.126C559.177 135.578 559.723 136.176 560.047 136.922C560.378 137.667 560.544 138.469 560.544 139.328C560.544 139.923 560.427 140.525 560.194 141.135C559.968 141.745 559.621 142.295 559.154 142.784C558.688 143.273 558.1 143.635 557.392 143.868L560.51 150.25H557.223L554.23 144.264H551.022V150.25H548.097ZM551.022 141.508H555.337C555.886 141.508 556.319 141.406 556.636 141.203C556.959 140.992 557.189 140.721 557.325 140.389C557.46 140.058 557.528 139.708 557.528 139.339C557.528 139.008 557.464 138.676 557.336 138.345C557.208 138.014 556.986 137.739 556.67 137.52C556.353 137.302 555.909 137.193 555.337 137.193H551.022V141.508Z" fill="url(#paint6_linear_824_32)"/>
</g>
<defs>
<filter id="filter0_d_824_32" x="15.1355" y="126.376" width="24.1212" height="13.0106" filterUnits="userSpaceOnUse" color-interpolation-filters="sRGB">
<feFlood flood-opacity="0" result="BackgroundImageFix"/>
<feColorMatrix in="SourceAlpha" type="matrix" values="0 0 0 0 0 0 0 0 0 0 0 0 0 0 0 0 0 0 127 0" result="hardAlpha"/>
<feOffset dx="-0.997731" dy="1.50601"/>
<feGaussianBlur stdDeviation="0.941256"/>
<feComposite in2="hardAlpha" operator="out"/>
<feColorMatrix type="matrix" values="0 0 0 0 0 0 0 0 0 0 0 0 0 0 0 0 0 0 0.45 0"/>
<feBlend mode="normal" in2="BackgroundImageFix" result="effect1_dropShadow_824_32"/>
<feBlend mode="normal" in="SourceGraphic" in2="effect1_dropShadow_824_32" result="shape"/>
</filter>
<filter id="filter1_d_824_32" x="138.606" y="47.3582" width="425.36" height="76.5618" filterUnits="userSpaceOnUse" color-interpolation-filters="sRGB">
<feFlood flood-opacity="0" result="BackgroundImageFix"/>
<feColorMatrix in="SourceAlpha" type="matrix" values="0 0 0 0 0 0 0 0 0 0 0 0 0 0 0 0 0 0 127 0" result="hardAlpha"/>
<feOffset dx="1.30073" dy="2.70119"/>
<feGaussianBlur stdDeviation="0.917223"/>
<feComposite in2="hardAlpha" operator="out"/>
<feColorMatrix type="matrix" values="0 0 0 0 0 0 0 0 0 0 0 0 0 0 0 0 0 0 0.35 0"/>
<feBlend mode="normal" in2="BackgroundImageFix" result="effect1_dropShadow_824_32"/>
<feBlend mode="normal" in="SourceGraphic" in2="effect1_dropShadow_824_32" result="shape"/>
</filter>
<linearGradient id="paint0_linear_824_32" x1="43.4675" y1="155.864" x2="43.4675" y2="43.0779" gradientUnits="userSpaceOnUse">
<stop offset="0.21" stop-color="#394E99"/>
<stop offset="0.34" stop-color="#3A5199"/>
<stop offset="0.46" stop-color="#3D5C99"/>
<stop offset="0.56" stop-color="#426E99"/>
<stop offset="0.67" stop-color="#4A8699"/>
<stop offset="0.77" stop-color="#54A69A"/>
<stop offset="0.86" stop-color="#5FCD9A"/>
<stop offset="0.91" stop-color="#66E49A"/>
</linearGradient>
<linearGradient id="paint1_linear_824_32" x1="74.1566" y1="-187.991" x2="-8.70744" y2="317.107" gradientUnits="userSpaceOnUse">
<stop offset="0.14" stop-color="#66E49A"/>
<stop offset="0.25" stop-color="#65E19A"/>
<stop offset="0.32" stop-color="#63D99A"/>
<stop offset="0.37" stop-color="#5ECB9A"/>
<stop offset="0.42" stop-color="#58B79A"/>
<stop offset="0.47" stop-color="#519D9A"/>
<stop offset="0.51" stop-color="#477C99"/>
<stop offset="0.55" stop-color="#394E99"/>
</linearGradient>
<linearGradient id="paint2_linear_824_32" x1="72.6572" y1="60.2664" x2="38.0647" y2="143.538" gradientUnits="userSpaceOnUse">
<stop stop-color="#66E49A"/>
<stop offset="0.09" stop-color="#5EC99A"/>
<stop offset="0.23" stop-color="#519D9A"/>
<stop offset="0.38" stop-color="#467B99"/>
<stop offset="0.52" stop-color="#3F6299"/>
<stop offset="0.64" stop-color="#3B5399"/>
<stop offset="0.74" stop-color="#394E99"/>
</linearGradient>
<linearGradient id="paint3_linear_824_32" x1="88.228" y1="160.734" x2="105.546" y2="100.336" gradientUnits="userSpaceOnUse">
<stop offset="0.29" stop-color="#394E99"/>
<stop offset="0.38" stop-color="#3D5B99"/>
<stop offset="0.56" stop-color="#477C99"/>
<stop offset="0.8" stop-color="#57B29A"/>
<stop offset="1" stop-color="#66E49A"/>
</linearGradient>
<linearGradient id="paint4_linear_824_32" x1="75.9487" y1="56.7745" x2="59.482" y2="160.723" gradientUnits="userSpaceOnUse">
<stop stop-color="#63DC9A"/>
<stop offset="0.08" stop-color="#5BC29A"/>
<stop offset="0.23" stop-color="#4F989A"/>
<stop offset="0.38" stop-color="#457899"/>
<stop offset="0.52" stop-color="#3F6199"/>
<stop offset="0.65" stop-color="#3A5399"/>
<stop offset="0.76" stop-color="#394E99"/>
</linearGradient>
<linearGradient id="paint5_linear_824_32" x1="315.353" y1="144.533" x2="341.075" y2="-70.0803" gradientUnits="userSpaceOnUse">
<stop stop-color="#7EF0B2"/>
<stop offset="0.08" stop-color="#74EABC"/>
<stop offset="0.23" stop-color="#61B5B8"/>
<stop offset="0.38" stop-color="#5990B4"/>
<stop offset="0.52" stop-color="#4B73B5"/>
<stop offset="0.65" stop-color="#4260B6"/>
<stop offset="0.76" stop-color="#455EB5"/>
</linearGradient>
<linearGradient id="paint6_linear_824_32" x1="131.548" y1="103.385" x2="238.37" y2="351.031" gradientUnits="userSpaceOnUse">
<stop offset="0.0925532" stop-color="#66E49A"/>
<stop offset="0.927373" stop-color="#6E7BC7"/>
</linearGradient>
<clipPath id="clip0_824_32">
<rect width="566.929" height="161.574" fill="white"/>
</clipPath>
</defs>
</svg>
