<?xml version="1.0" encoding="utf-8"?>
<!-- Generator: Adobe Illustrator 25.4.1, SVG Export Plug-In . SVG Version: 6.00 Build 0)  -->
<svg version="1.1" id="Layer_1" xmlns="http://www.w3.org/2000/svg" xmlns:xlink="http://www.w3.org/1999/xlink" x="0px" y="0px"
	 viewBox="0 0 566.9 161.6" style="enable-background:new 0 0 566.9 161.6;" xml:space="preserve">
<style type="text/css">
	.st0{clip-path:url(#SVGID_00000093894849371478177800000011715495604546444685_);}
	.st1{fill:#FFFFFF;}
	.st2{fill:url(#SVGID_00000073682800385439883800000001493931484024979890_);}
	.st3{fill-rule:evenodd;clip-rule:evenodd;fill:url(#SVGID_00000159452521520945064530000001152858190603016068_);}
	.st4{fill-rule:evenodd;clip-rule:evenodd;fill:#394E99;}
	.st5{fill-rule:evenodd;clip-rule:evenodd;fill:url(#SVGID_00000153674838165642829460000016640415052121199531_);}
	.st6{fill:url(#SVGID_00000126303244786800203690000016196437407804634282_);}
	.st7{fill:url(#SVGID_00000145027079823027727840000012503299270951912097_);}
	.st8{fill:url(#SVGID_00000128472480083914970030000005958439908061410751_);}
	.st9{fill:url(#SVGID_00000079485830944967386540000000603787580833234322_);}
</style>
<g>
	<g>
		<defs>
			<rect id="SVGID_1_" width="566.9" height="161.6"/>
		</defs>
		<clipPath id="SVGID_00000098915283378981931250000011692791165402419094_">
			<use xlink:href="#SVGID_1_"  style="overflow:visible;"/>
		</clipPath>
		<g style="clip-path:url(#SVGID_00000098915283378981931250000011692791165402419094_);">
			<path class="st1" d="M12.3,157c-3.6,0-4.6-2.3-5-3.7c-0.1-1.3,0.1-2.5,0.7-3.7L69,44c0.4-0.6,0.9-1.2,1.5-1.5
				c0.6-0.4,1.3-0.5,2.1-0.5c0.6,0,1.2,0.1,1.7,0.4c1.6,0.7,2.6,2.2,3.2,3.4c1.5,2.7,2.2,5.7,2.2,8.7s-0.8,6-2.3,8.7l-49.9,86.4
				c-1.3,2.3-3.2,4.2-5.6,5.5c-2.3,1.3-4.9,2-7.6,2L12.3,157z"/>
			
				<linearGradient id="SVGID_00000087383694212677010760000015980157865308214687_" gradientUnits="userSpaceOnUse" x1="43.35" y1="23.864" x2="43.35" y2="-88.936" gradientTransform="matrix(1 0 0 1 0 132)">
				<stop  offset="0.21" style="stop-color:#394E99"/>
				<stop  offset="0.34" style="stop-color:#3A5199"/>
				<stop  offset="0.46" style="stop-color:#3D5C99"/>
				<stop  offset="0.56" style="stop-color:#426E99"/>
				<stop  offset="0.67" style="stop-color:#4A8699"/>
				<stop  offset="0.77" style="stop-color:#54A69A"/>
				<stop  offset="0.86" style="stop-color:#5FCD9A"/>
				<stop  offset="0.91" style="stop-color:#66E49A"/>
			</linearGradient>
			<path style="fill:url(#SVGID_00000087383694212677010760000015980157865308214687_);" d="M12.2,155.9c-2.1,0-3.4-0.9-3.9-2.8
				c0-0.2,0.1-2,0.5-2.8l61-105.6c0.3-0.5,0.6-0.8,1.1-1.1s1-0.4,1.5-0.4c0.4,0,0.9,0.1,1.3,0.3c1.3,0.6,2.2,2,2.6,2.8
				c1.4,2.5,2.1,5.3,2.1,8.2s-0.8,5.7-2.2,8.1L26.3,149c-1.2,2.1-3,3.9-5.1,5.1c-2.1,1.2-4.6,1.9-7,1.9h-2V155.9z"/>
			<path class="st1" d="M72.5,43.8c0.3,0,0.7,0.1,1,0.2c1.4,0.6,2.2,2.4,2.3,2.5c1.3,2.4,2,5.1,2,7.8s-0.7,5.4-2.1,7.8l-49.9,86.4
				c-1.2,2-2.8,3.7-4.9,4.9c-2,1.2-4.3,1.8-6.6,1.8h-2.1c-1.4,0-2.7-0.4-3.1-2.2c0,0,0.1-1.6,0.5-2.3l61-105.6
				c0.2-0.3,0.5-0.6,0.8-0.8C71.8,43.9,72.1,43.8,72.5,43.8 M72.5,42.3c-0.7,0-1.3,0.2-1.9,0.5s-1.1,0.8-1.4,1.4l-61,105.6
				c-0.6,1-0.7,3-0.6,3.4c0.3,1.3,1.3,3.4,4.6,3.4h2.1c2.6,0,5.1-0.7,7.4-2c2.2-1.3,4.1-3.2,5.4-5.4L77,62.9
				c1.5-2.6,2.3-5.5,2.3-8.5s-0.7-5.9-2.2-8.5l0,0c-0.6-1.1-1.5-2.6-3-3.2C73.6,42.4,73.1,42.3,72.5,42.3L72.5,42.3z"/>
			
				<linearGradient id="SVGID_00000080915776809822785980000001798223673390928265_" gradientUnits="userSpaceOnUse" x1="127.9251" y1="-311.17" x2="45.0611" y2="193.928" gradientTransform="matrix(1 0 0 1 0 132)">
				<stop  offset="0.14" style="stop-color:#66E49A"/>
				<stop  offset="0.25" style="stop-color:#65E19A"/>
				<stop  offset="0.32" style="stop-color:#63D99A"/>
				<stop  offset="0.37" style="stop-color:#5ECB9A"/>
				<stop  offset="0.42" style="stop-color:#58B79A"/>
				<stop  offset="0.47" style="stop-color:#519D9A"/>
				<stop  offset="0.51" style="stop-color:#477C99"/>
				<stop  offset="0.55" style="stop-color:#394E99"/>
			</linearGradient>
			<path style="fill-rule:evenodd;clip-rule:evenodd;fill:url(#SVGID_00000080915776809822785980000001798223673390928265_);" d="
				M54.5,49.5c-0.7-7,0.4-13.7,3.1-18.9c2.2,8.3,1.1,11.8,8.7,17.1C58.8,26.8,71.5,12.2,86.7-1c-22.4,59.5,78.8,122.6-2.3,148.5
				c7.5-5.1,11.9-29.1,12.1-32.3C98.8,79.2,59.2,79.6,54.5,49.5z"/>
			<g>
				<path class="st4" d="M33.1,135.8l5.2-9c-4.7-0.1-10.2,0.6-17.1,3.6L18,136C23,135.1,28.1,135,33.1,135.8z"/>
			</g>
			
				<linearGradient id="SVGID_00000165208551522464072080000016821159983299604367_" gradientUnits="userSpaceOnUse" x1="86.0633" y1="-66.1645" x2="51.4708" y2="17.1071" gradientTransform="matrix(1 0 0 1 0 132)">
				<stop  offset="0" style="stop-color:#66E49A"/>
				<stop  offset="9.000000e-02" style="stop-color:#5EC99A"/>
				<stop  offset="0.23" style="stop-color:#519D9A"/>
				<stop  offset="0.38" style="stop-color:#467B99"/>
				<stop  offset="0.52" style="stop-color:#3F6299"/>
				<stop  offset="0.64" style="stop-color:#3B5399"/>
				<stop  offset="0.74" style="stop-color:#394E99"/>
			</linearGradient>
			<path style="fill-rule:evenodd;clip-rule:evenodd;fill:url(#SVGID_00000165208551522464072080000016821159983299604367_);" d="
				M0,143.6c32-21.4,56.2,5.4,78.7,3.7c24.6-1.8,43.6-16.4,35.8-40.5c-11.3-30.3-45.1-74.6-83.7-34.4c30.5-21.5,56,22,47.2,48.4
				c-3.8,11.4-17.2,10-27,8C41.2,126.9,28.3,121.2,0,143.6z"/>
			
				<linearGradient id="SVGID_00000139994131854255653400000001670295083151317395_" gradientUnits="userSpaceOnUse" x1="88.1489" y1="28.7337" x2="105.4635" y2="-31.6523" gradientTransform="matrix(1 0 0 1 0 132)">
				<stop  offset="0.29" style="stop-color:#394E99"/>
				<stop  offset="0.38" style="stop-color:#3D5B99"/>
				<stop  offset="0.56" style="stop-color:#477C99"/>
				<stop  offset="0.8" style="stop-color:#57B29A"/>
				<stop  offset="1" style="stop-color:#66E49A"/>
			</linearGradient>
			<path style="fill:url(#SVGID_00000139994131854255653400000001670295083151317395_);" d="M109.8,156.4c-0.9,0-1.7-0.2-2.5-0.7
				c-0.7-0.4-1.4-1-1.8-1.8l-9.2-16.6c-0.2-0.4-0.6-0.8-1-1s-0.9-0.4-1.4-0.4s-1,0.1-1.4,0.4c-0.4,0.2-0.8,0.6-1,1l-9.8,16.9
				c-0.4,0.6-0.9,1.2-1.6,1.6c-0.7,0.4-1.4,0.6-2.1,0.6h-4.4c-0.7,0-1.5-0.2-2.1-0.6c-0.6-0.4-1.2-0.9-1.6-1.6
				c-0.4-0.6-0.6-1.4-0.6-2.1c0-0.7,0.2-1.5,0.6-2.1l16-27.7c0.2-0.4,0.4-0.9,0.4-1.4s-0.1-1-0.4-1.4l-9.2-15.9
				c-0.4-0.7-0.6-1.4-0.6-2.1s0.2-1.5,0.6-2.1l1.6-2.8c0.4-0.8,1-1.4,1.8-1.8c0.7-0.4,1.6-0.7,2.5-0.7s1.7,0.2,2.5,0.7
				c0.7,0.4,1.4,1.1,1.8,1.8l31.9,55.9c0.2,0.4,0.4,0.9,0.4,1.3c0,0.5-0.1,0.9-0.3,1.4c-0.2,0.4-0.6,0.8-1,1s-0.9,0.3-1.4,0.3
				L109.8,156.4L109.8,156.4z"/>
			<path class="st1" d="M82.7,94.8c0.7,0,1.4,0.2,2.1,0.6c0.6,0.4,1.2,0.9,1.5,1.5l31.9,55.9c0.2,0.3,0.3,0.6,0.3,1s-0.1,0.7-0.3,1
				c-0.2,0.3-0.4,0.6-0.7,0.7c-0.3,0.2-0.7,0.2-1,0.2l-6.7,0.1c-0.7,0-1.4-0.2-2.1-0.6c-0.6-0.4-1.2-0.9-1.5-1.5L97,137
				c-0.3-0.5-0.8-1-1.3-1.3s-1.1-0.5-1.8-0.5s-1.2,0.2-1.8,0.5c-0.5,0.3-1,0.8-1.3,1.3L81,153.9c-0.3,0.5-0.8,1-1.3,1.3
				s-1.1,0.5-1.8,0.5h-4.4c-0.6,0-1.2-0.2-1.8-0.5c-0.5-0.3-1-0.8-1.3-1.3s-0.5-1.1-0.5-1.8c0-0.6,0.2-1.2,0.5-1.8l16-27.7
				c0.3-0.5,0.5-1.1,0.5-1.8c0-0.6-0.2-1.2-0.5-1.8l-9.2-15.9c-0.3-0.5-0.5-1.1-0.5-1.8c0-0.6,0.2-1.2,0.5-1.8l1.6-2.8
				c0.4-0.6,0.9-1.2,1.5-1.5C81.3,94.9,82,94.8,82.7,94.8 M82.7,93.2c-1,0-2,0.3-2.8,0.8c-0.9,0.5-1.6,1.2-2.1,2.1l-1.6,2.8
				c-0.4,0.8-0.7,1.6-0.7,2.5s0.2,1.8,0.7,2.5l9.2,15.9c0.2,0.3,0.3,0.7,0.3,1c0,0.4-0.1,0.7-0.3,1l-16,27.7
				c-0.4,0.8-0.7,1.6-0.7,2.5s0.2,1.7,0.7,2.5c0.4,0.8,1.1,1.4,1.8,1.8c0.8,0.4,1.6,0.7,2.5,0.7h4.4c0.9,0,1.8-0.2,2.5-0.7
				c0.8-0.4,1.4-1.1,1.8-1.8l9.8-16.9c0.2-0.3,0.4-0.6,0.7-0.7c0.3-0.2,0.7-0.3,1-0.3c0.4,0,0.7,0.1,1,0.3s0.6,0.4,0.7,0.7l9.2,16.6
				c0.5,0.9,1.2,1.6,2.1,2.1s1.8,0.8,2.8,0.8l6.7-0.1c0.6,0,1.2-0.1,1.8-0.4c0.5-0.3,1-0.7,1.3-1.3c0.3-0.5,0.4-1.1,0.4-1.7
				c0-0.6-0.2-1.2-0.5-1.7L87.7,96.1c-0.5-0.9-1.2-1.6-2.1-2.1S83.8,93.2,82.7,93.2L82.7,93.2z"/>
			
				<linearGradient id="SVGID_00000170999775200476792420000016787683085929021347_" gradientUnits="userSpaceOnUse" x1="75.9194" y1="-75.1803" x2="59.4557" y2="28.7495" gradientTransform="matrix(1 0 0 1 0 132)">
				<stop  offset="0" style="stop-color:#63DC9A"/>
				<stop  offset="8.000000e-02" style="stop-color:#5BC29A"/>
				<stop  offset="0.23" style="stop-color:#4F989A"/>
				<stop  offset="0.38" style="stop-color:#457899"/>
				<stop  offset="0.52" style="stop-color:#3F6199"/>
				<stop  offset="0.65" style="stop-color:#3A5399"/>
				<stop  offset="0.76" style="stop-color:#394E99"/>
			</linearGradient>
			<path style="fill:url(#SVGID_00000170999775200476792420000016787683085929021347_);" d="M32.4,156.4c-0.8,0-1.7-0.2-2.4-0.6
				c-0.7-0.4-1.3-1-1.8-1.8c-0.4-0.7-0.6-1.6-0.6-2.4c0-0.8,0.2-1.7,0.6-2.4l51.2-88.7c0.4-0.7,1-1.3,1.8-1.8
				c0.7-0.4,1.6-0.6,2.4-0.6s1.7,0.2,2.4,0.6c0.7,0.4,1.3,1,1.8,1.8l15.6,26.9c0.4,0.7,0.6,1.6,0.6,2.4s-0.2,1.7-0.6,2.4l-2.8,4.9
				c-0.4,0.7-1,1.3-1.8,1.8c-0.7,0.4-1.6,0.6-2.4,0.6s-1.7-0.2-2.4-0.6c-0.7-0.4-1.3-1-1.8-1.8l-6-10.3c-0.3-0.5-0.7-0.9-1.2-1.2
				c-0.5-0.3-1.1-0.4-1.6-0.4c-0.6,0-1.1,0.2-1.6,0.4c-0.5,0.3-0.9,0.7-1.2,1.2l-29,50.1c-0.3,0.5-0.4,1.1-0.4,1.6
				c0,0.6,0.2,1.1,0.4,1.6c0.3,0.5,0.7,0.9,1.2,1.2s1.1,0.4,1.6,0.4h11.9c0.8,0,1.7,0.2,2.4,0.7c0.7,0.4,1.3,1,1.8,1.8
				c0.4,0.7,0.6,1.6,0.6,2.4c0,0.8-0.2,1.7-0.6,2.4l-2.8,4.9c-0.4,0.7-1,1.3-1.8,1.8c-0.7,0.4-1.6,0.6-2.4,0.6H32.4V156.4z"/>
			<path class="st1" d="M83.7,58.8c0.7,0,1.4,0.2,2,0.5c0.6,0.4,1.1,0.9,1.5,1.5l15.6,26.9c0.4,0.6,0.5,1.3,0.5,2s-0.2,1.4-0.5,2
				l-2.8,4.9c-0.4,0.6-0.9,1.1-1.5,1.5s-1.3,0.5-2,0.5s-1.4-0.2-2-0.5c-0.6-0.4-1.1-0.9-1.5-1.5l-6-10.3c-0.4-0.6-0.9-1.1-1.5-1.5
				s-1.3-0.5-2-0.5s-1.4,0.2-2,0.5c-0.6,0.4-1.1,0.9-1.5,1.5l-3.8,6.5L51,136.5c-0.4,0.6-0.5,1.3-0.5,2s0.2,1.4,0.5,2
				c0.4,0.6,0.9,1.1,1.5,1.5s1.3,0.5,2,0.5h11.9c0.7,0,1.4,0.2,2,0.5c0.6,0.4,1.1,0.9,1.5,1.5s0.5,1.3,0.5,2s-0.2,1.4-0.5,2
				l-2.8,4.9c-0.4,0.6-0.9,1.1-1.5,1.5s-1.3,0.5-2,0.5H32.4c-0.7,0-1.4-0.2-2-0.5c-0.6-0.4-1.1-0.9-1.5-1.5s-0.5-1.3-0.5-2
				s0.2-1.4,0.5-2l51.2-88.7c0.4-0.6,0.9-1.1,1.5-1.5S83,58.8,83.7,58.8 M83.7,57.3c-1,0-1.9,0.2-2.8,0.7c-0.8,0.5-1.6,1.2-2,2
				l-51.2,88.7c-0.5,0.8-0.7,1.8-0.7,2.8s0.3,1.9,0.7,2.8c0.5,0.8,1.2,1.5,2,2s1.8,0.7,2.8,0.7h31.1c1,0,1.9-0.3,2.8-0.7
				c0.8-0.5,1.5-1.2,2-2l2.8-4.9c0.5-0.8,0.7-1.8,0.7-2.8s-0.3-1.9-0.7-2.8s-1.2-1.5-2-2s-1.8-0.7-2.8-0.7H54.5
				c-0.4,0-0.9-0.1-1.3-0.3c-0.4-0.2-0.7-0.5-0.9-0.9s-0.3-0.8-0.3-1.3c0-0.4,0.1-0.9,0.3-1.3l25.2-43.6l3.8-6.5
				c0.2-0.4,0.5-0.7,0.9-0.9c0.4-0.2,0.8-0.3,1.3-0.3s0.9,0.1,1.3,0.3c0.4,0.2,0.7,0.5,0.9,0.9l6,10.3c0.5,0.8,1.2,1.5,2,2
				s1.8,0.7,2.8,0.7s1.9-0.3,2.8-0.7c0.8-0.5,1.5-1.2,2-2l2.8-4.9c0.5-0.8,0.7-1.8,0.7-2.8s-0.3-1.9-0.7-2.8L88.5,60.1
				c-0.5-0.8-1.2-1.6-2-2C85.6,57.6,84.6,57.3,83.7,57.3L83.7,57.3z"/>
			<g>
				
					<linearGradient id="SVGID_00000143611489128473162030000015683044142245089199_" gradientUnits="userSpaceOnUse" x1="342.4202" y1="9.7771" x2="368.1422" y2="-204.8362" gradientTransform="matrix(1 0 0 1 0 132)">
					<stop  offset="0" style="stop-color:#7EF0B2"/>
					<stop  offset="8.000000e-02" style="stop-color:#74EABC"/>
					<stop  offset="0.23" style="stop-color:#61B5B8"/>
					<stop  offset="0.38" style="stop-color:#5990B4"/>
					<stop  offset="0.52" style="stop-color:#4B73B5"/>
					<stop  offset="0.65" style="stop-color:#4260B6"/>
					<stop  offset="0.76" style="stop-color:#455EB5"/>
				</linearGradient>
				<path style="fill:url(#SVGID_00000143611489128473162030000015683044142245089199_);" d="M139.1,42.9h13.7v69.6h-13.7V42.9z
					 M223.1,106.8c-0.8,0.6-2.2,1.5-4.3,2.6c-2,1.1-4.5,2-7.5,2.8s-6.2,1.2-9.8,1.1c-5.5-0.1-10.4-1.1-14.8-2.9
					c-4.3-1.9-7.9-4.4-11-7.7c-3-3.2-5.2-6.9-6.8-11.1s-2.4-8.6-2.4-13.3c0-5.3,0.8-10.2,2.4-14.6c1.6-4.4,3.9-8.2,6.9-11.4
					s6.6-5.7,10.8-7.5s8.8-2.6,13.8-2.6c4.7,0,8.8,0.6,12.4,1.9c3.6,1.3,6.5,2.6,8.8,4.1l-5.4,13c-1.6-1.2-3.7-2.4-6.3-3.7
					s-5.6-2-9-2c-2.6,0-5.2,0.6-7.7,1.7c-2.4,1.1-4.5,2.6-6.4,4.6c-1.8,2-3.3,4.4-4.4,7.1c-1.1,2.6-1.6,5.6-1.6,8.7
					c0,3.3,0.5,6.4,1.4,9.2c1,2.8,2.4,5.2,4.3,7.2c1.8,2,4,3.5,6.5,4.5c2.6,1.1,5.5,1.6,8.7,1.6c3.7,0,6.9-0.6,9.6-1.8
					s4.7-2.5,6.1-3.8L223.1,106.8z M232.1,42.9H279v13.2h-16.9v56.4h-13.7V56.1h-16.3V42.9z M319.7,112.5c4.4-4.5,8.6-8.7,12.6-12.8
					c4-4.2,7.6-8.2,10.8-12c3.3-3.9,5.8-7.6,7.6-11.2c1.9-3.6,2.9-7.1,2.9-10.5c0-1.5-0.3-2.8-0.8-4s-1.2-2.2-2.2-3.1
					c-0.9-0.8-2.1-1.5-3.4-1.9c-1.3-0.5-2.7-0.7-4.3-0.7c-1.6,0-3.1,0.2-4.3,0.7c-1.3,0.4-2.3,1-3.2,1.8c-0.8,0.8-1.5,1.6-2,2.5
					c-0.4,0.9-0.6,1.9-0.6,2.9c0,2.3,0.4,4.3,1.1,6c0.8,1.7,1.8,3.2,3.1,4.6l-9.4,8.6c-2.1-1-3.8-2.7-5.3-5
					c-1.4-2.3-2.5-4.8-3.3-7.3c-0.7-2.6-1.1-4.8-1.1-6.5c0-3.9,1.1-7.6,3.2-11.1c2.2-3.5,5.3-6.4,9.4-8.7c4.2-2.3,9.2-3.4,15.2-3.4
					c4.9,0,9.1,1.1,12.7,3.3s6.4,5.1,8.4,8.7c2.1,3.5,3.1,7.3,3.1,11.3c0,3.2-0.5,6.3-1.5,9.2c-1,3-2.4,5.9-4.1,8.8
					c-1.7,2.8-3.6,5.7-5.8,8.5c-2.2,2.8-4.5,5.6-6.8,8.5l-7-2h26.1v14.8H319.7z M409.2,112.6c-4,0-7.8-0.7-11.5-2.1
					c-3.5-1.4-6.7-3.6-9.4-6.5c-2.7-3-4.8-6.7-6.4-11.1c-1.6-4.5-2.3-9.8-2.3-15.9c0-6.8,0.7-12.4,2.2-17s3.5-8.3,6.2-11
					c2.7-2.8,5.8-4.7,9.4-5.8c3.6-1.2,7.5-1.8,11.8-1.8c4,0,7.8,0.7,11.4,2.1c3.6,1.4,6.8,3.6,9.4,6.6c2.8,2.9,4.9,6.6,6.5,11.1
					s2.3,9.7,2.3,15.8c0,6.3-0.8,11.7-2.3,16.2c-1.6,4.5-3.7,8.2-6.5,11.1c-2.8,2.8-5.9,4.9-9.4,6.3
					C417,112,413.2,112.6,409.2,112.6z M409,97.9c3.5,0,6.3-0.9,8.3-2.8s3.4-4.5,4.1-7.7c0.8-3.3,1.3-6.9,1.3-10.8
					s-0.4-7.4-1.3-10.4c-0.8-3-2.2-5.4-4.1-7.2c-2-1.8-4.7-2.8-8.3-2.8c-3.5,0-6.2,0.9-8.2,2.8c-2,1.8-3.4,4.3-4.1,7.4
					c-0.8,3.1-1.2,6.6-1.2,10.5s0.4,7.4,1.2,10.6c0.8,3.2,2.2,5.7,4.1,7.6C402.9,97,405.6,97.9,409,97.9z M448.2,112.5
					c4.4-4.5,8.6-8.7,12.6-12.8c4-4.2,7.6-8.2,10.8-12c3.3-3.9,5.8-7.6,7.6-11.2c1.9-3.6,2.9-7.1,2.9-10.5c0-1.5-0.3-2.8-0.8-4
					s-1.2-2.2-2.2-3.1c-0.9-0.8-2.1-1.5-3.4-1.9c-1.3-0.5-2.7-0.7-4.3-0.7c-1.6,0-3.1,0.2-4.3,0.7c-1.3,0.4-2.3,1-3.2,1.8
					c-0.8,0.8-1.5,1.6-2,2.5c-0.4,0.9-0.6,1.9-0.6,2.9c0,2.3,0.4,4.3,1.1,6c0.8,1.7,1.8,3.2,3.1,4.6l-9.4,8.6c-2.1-1-3.8-2.7-5.3-5
					c-1.4-2.3-2.5-4.8-3.3-7.3c-0.7-2.6-1.1-4.8-1.1-6.5c0-3.9,1.1-7.6,3.2-11.1c2.2-3.5,5.3-6.4,9.4-8.7c4.2-2.3,9.2-3.4,15.2-3.4
					c4.9,0,9.1,1.1,12.7,3.3s6.4,5.1,8.4,8.7c2.1,3.5,3.1,7.3,3.1,11.3c0,3.2-0.5,6.3-1.5,9.2c-1,3-2.4,5.9-4.1,8.8
					c-1.7,2.8-3.6,5.7-5.8,8.5c-2.2,2.8-4.5,5.6-6.8,8.5l-7-2H499v14.8H448.2z M510,112.5c4.4-4.5,8.6-8.7,12.6-12.8
					c4-4.2,7.6-8.2,10.8-12c3.3-3.9,5.8-7.6,7.6-11.2c1.9-3.6,2.9-7.1,2.9-10.5c0-1.5-0.3-2.8-0.8-4s-1.2-2.2-2.2-3.1
					c-0.9-0.8-2-1.5-3.4-1.9c-1.3-0.5-2.7-0.7-4.3-0.7s-3.1,0.2-4.3,0.7c-1.3,0.4-2.3,1-3.2,1.8c-0.8,0.8-1.5,1.6-2,2.5
					c-0.4,0.9-0.6,1.9-0.6,2.9c0,2.3,0.4,4.3,1.1,6c0.8,1.7,1.8,3.2,3.1,4.6l-9.4,8.6c-2.1-1-3.8-2.7-5.3-5
					c-1.4-2.3-2.5-4.8-3.3-7.3c-0.7-2.6-1.1-4.8-1.1-6.5c0-3.9,1.1-7.6,3.2-11.1c2.2-3.5,5.3-6.4,9.4-8.7c4.2-2.3,9.2-3.4,15.2-3.4
					c4.9,0,9.1,1.1,12.7,3.3c3.6,2.2,6.4,5.1,8.4,8.7c2.1,3.5,3.1,7.3,3.1,11.3c0,3.2-0.5,6.3-1.5,9.2s-2.4,5.9-4.1,8.8
					c-1.7,2.8-3.6,5.7-5.8,8.5s-4.5,5.6-6.8,8.5l-7-2h26.1v14.8H510z"/>
			</g>
			
				<linearGradient id="SVGID_00000160179838437086633680000005136540828137450914_" gradientUnits="userSpaceOnUse" x1="300.6615" y1="-107.562" x2="407.4835" y2="140.084" gradientTransform="matrix(1 0 0 1 0 132)">
				<stop  offset="9.255320e-02" style="stop-color:#66E49A"/>
				<stop  offset="0.9274" style="stop-color:#6E7BC7"/>
			</linearGradient>
			<path style="fill:url(#SVGID_00000160179838437086633680000005136540828137450914_);" d="M138.9,144.2v-15.8h6.8
				c1.3,0,2.3,0.2,3.1,0.6c0.7,0.4,1.3,0.9,1.6,1.6c0.3,0.6,0.5,1.3,0.5,2s-0.2,1.4-0.5,1.9c-0.3,0.6-0.8,1-1.5,1.3
				c0.6,0.2,1,0.5,1.4,0.9s0.7,0.8,0.8,1.3c0.2,0.5,0.3,1,0.3,1.4c0,0.6-0.1,1.1-0.3,1.7c-0.2,0.6-0.5,1.1-0.9,1.5s-1,0.8-1.6,1.1
				c-0.7,0.3-1.5,0.4-2.5,0.4h-7.2V144.2z M141.8,141.5h4.4c0.6,0,1-0.1,1.3-0.3s0.6-0.4,0.7-0.7c0.1-0.3,0.2-0.6,0.2-0.9
				c0-0.4-0.1-0.7-0.2-1c-0.2-0.3-0.4-0.6-0.8-0.8c-0.4-0.2-1-0.3-1.8-0.3h-3.8L141.8,141.5L141.8,141.5z M141.8,134.8h3.5
				c0.9,0,1.5-0.2,1.9-0.5s0.6-0.8,0.6-1.3c0-0.3-0.1-0.6-0.2-0.8c-0.1-0.3-0.3-0.5-0.6-0.7s-0.7-0.3-1.3-0.3h-4v3.6H141.8z
				 M156.2,144.2v-15.8h10.7v2.8h-7.8v3.5h4.6v2.8h-4.6v4h8.2v2.8h-11.1V144.2z M175.6,144.2v-13h-4.5v-2.8H183v2.8h-4.5v13H175.6z
				 M191.3,144.2v-13h-4.5v-2.8h11.9v2.8h-4.5v13H191.3z M203.2,144.2v-15.8h10.7v2.8h-7.8v3.5h4.6v2.8h-4.6v4h8.2v2.8h-11.1V144.2z
				 M219,144.2v-15.8h7.2c1.3,0,2.4,0.2,3.1,0.7c0.8,0.5,1.3,1,1.6,1.8c0.3,0.7,0.5,1.5,0.5,2.4c0,0.6-0.1,1.2-0.3,1.8
				s-0.6,1.2-1,1.6c-0.5,0.5-1.1,0.9-1.8,1.1l3.1,6.4h-3.3l-3-6h-3.2v6H219z M221.9,135.5h4.3c0.6,0,1-0.1,1.3-0.3s0.6-0.5,0.7-0.8
				c0.1-0.3,0.2-0.7,0.2-1.1c0-0.3-0.1-0.7-0.2-1c-0.1-0.3-0.4-0.6-0.7-0.8s-0.8-0.3-1.3-0.3h-4.3V135.5z M243.8,144.2v-15.8h10.5
				v2.8h-7.6v3.5h4.9v2.8h-4.9v6.8h-2.9V144.2z M264.8,144.5c-1.3,0-2.5-0.2-3.4-0.7s-1.6-1.2-2.1-2.2c-0.5-0.9-0.7-2.1-0.7-3.4
				v-9.8h2.9v9.8c0,1.2,0.3,2.1,0.8,2.6c0.5,0.6,1.4,0.8,2.6,0.8c0.7,0,1.4-0.1,1.9-0.4c0.5-0.2,0.9-0.6,1.1-1.1s0.4-1.2,0.4-2v-9.8
				h2.9v9.8c0,1.1-0.2,2.1-0.5,2.9c-0.3,0.8-0.8,1.5-1.4,2s-1.2,0.9-2,1.1C266.4,144.4,265.6,144.5,264.8,144.5z M280,144.2v-13
				h-4.5v-2.8h11.9v2.8h-4.5v13H280z M298.1,144.5c-1.3,0-2.5-0.2-3.4-0.7s-1.6-1.2-2.1-2.2c-0.5-0.9-0.7-2.1-0.7-3.4v-9.8h2.9v9.8
				c0,1.2,0.3,2.1,0.8,2.6c0.5,0.6,1.4,0.8,2.6,0.8c0.7,0,1.4-0.1,1.9-0.4c0.5-0.2,0.9-0.6,1.1-1.1s0.4-1.2,0.4-2v-9.8h2.9v9.8
				c0,1.1-0.2,2.1-0.5,2.9c-0.3,0.8-0.8,1.5-1.4,2s-1.2,0.9-2,1.1C299.7,144.4,298.9,144.5,298.1,144.5z M309.8,144.2v-15.8h7.2
				c1.3,0,2.4,0.2,3.1,0.7c0.8,0.5,1.3,1,1.6,1.8c0.3,0.7,0.5,1.5,0.5,2.4c0,0.6-0.1,1.2-0.4,1.8c-0.2,0.6-0.6,1.2-1,1.6
				s-1.1,0.9-1.8,1.1l3.1,6.4h-3.3l-3-6h-3.2v6H309.8z M312.7,135.5h4.3c0.5,0,1-0.1,1.3-0.3s0.6-0.5,0.7-0.8s0.2-0.7,0.2-1.1
				c0-0.3-0.1-0.7-0.2-1s-0.4-0.6-0.7-0.8c-0.3-0.2-0.8-0.3-1.3-0.3h-4.3V135.5z M327.2,144.2v-15.8h10.7v2.8h-7.8v3.5h4.6v2.8h-4.6
				v4h8.2v2.8h-11.1V144.2z M350.5,144.2v-15.8h2.9v13h7.6v2.8H350.5z M365.1,144.2v-15.8h10.7v2.8H368v3.5h4.6v2.8H368v4h8.2v2.8
				h-11.1V144.2z M384.5,144.2v-13H380v-2.8h12v2.8h-4.5v13H384.5z M401.4,144.5c-1,0-1.9-0.2-2.7-0.5c-0.8-0.3-1.5-0.8-2.1-1.5
				c-0.6-0.6-1-1.4-1.3-2.3l2.7-1c0.3,0.7,0.8,1.3,1.4,1.8s1.3,0.7,2.1,0.7c0.8,0,1.4-0.2,1.9-0.5s0.7-0.8,0.7-1.5
				c0-0.4-0.1-0.8-0.4-1.1s-0.7-0.6-1.1-0.8c-0.5-0.2-1-0.4-1.6-0.6c-0.6-0.2-1.2-0.4-1.8-0.7c-0.6-0.2-1.1-0.5-1.6-0.9
				s-0.9-0.8-1.2-1.3c-0.3-0.5-0.4-1.2-0.4-2s0.2-1.5,0.6-2.1s1-1.2,1.8-1.5c0.8-0.4,1.7-0.6,2.9-0.6c0.9,0,1.7,0.2,2.4,0.5
				c0.7,0.3,1.3,0.7,1.8,1.3c0.5,0.5,0.8,1.1,1,1.8l-2.6,0.9c-0.2-0.5-0.5-0.9-1-1.2c-0.4-0.3-1-0.5-1.8-0.5c-0.7,0-1.2,0.1-1.6,0.4
				c-0.4,0.3-0.6,0.7-0.6,1.2c0,0.3,0.1,0.6,0.4,0.9c0.3,0.2,0.6,0.4,1,0.6c0.4,0.2,0.9,0.4,1.5,0.6c0.6,0.2,1.2,0.5,1.9,0.7
				c0.6,0.3,1.2,0.6,1.7,1s0.9,0.9,1.2,1.4c0.3,0.6,0.5,1.3,0.5,2.1c0,1-0.3,1.9-0.8,2.6c-0.5,0.7-1.2,1.2-2,1.6
				C403.4,144.3,402.5,144.5,401.4,144.5z M419.4,144.2v-15.8h10.5v2.8h-7.6v3.5h4.9v2.8h-4.9v6.8h-2.9V144.2z M434.1,144.2v-15.8
				h2.9v13h7.6v2.8H434.1z M451.1,144.2V138l-5.8-9.6h3.3l3.9,6.6l4-6.6h3.3L454,138v6.2H451.1z M470.5,144.2v-15.8h2.9v6.3h6.7
				v-6.3h2.9v15.8h-2.9v-6.8h-6.7v6.8H470.5z M488.5,144.2v-15.8h2.9v15.8H488.5z M503.3,144.5c-1.2,0-2.3-0.2-3.1-0.7
				c-0.9-0.5-1.6-1.1-2.1-1.9c-0.6-0.8-1-1.7-1.2-2.6c-0.3-1-0.4-2-0.4-3s0.1-2,0.4-2.9c0.3-1,0.7-1.8,1.3-2.6
				c0.6-0.8,1.3-1.4,2.1-1.9c0.9-0.5,1.9-0.7,3.1-0.7c1,0,1.9,0.2,2.6,0.5s1.3,0.7,1.8,1.2s0.9,1,1.3,1.6l-2.6,1.5
				c-0.3-0.5-0.8-1-1.2-1.4c-0.5-0.4-1.1-0.6-1.8-0.6c-0.7,0-1.4,0.2-1.9,0.5s-0.9,0.8-1.2,1.3c-0.3,0.5-0.5,1.1-0.6,1.8
				c-0.1,0.6-0.2,1.2-0.2,1.8c0,0.7,0.1,1.3,0.2,2c0.1,0.6,0.4,1.2,0.7,1.7c0.3,0.5,0.7,0.9,1.2,1.2s1.1,0.4,1.8,0.4
				c0.5,0,1-0.1,1.4-0.4c0.4-0.2,0.8-0.5,1-0.9s0.4-0.8,0.4-1.3v-0.3h-2.7V136h5.7v2.3c0,1.3-0.3,2.5-0.8,3.4s-1.2,1.6-2.1,2.1
				C505.4,144.3,504.4,144.5,503.3,144.5z M514.2,144.2v-15.8h2.9v6.3h6.7v-6.3h2.9v15.8h-2.9v-6.8h-6.7v6.8H514.2z M532.3,144.2
				v-15.8H543v2.8h-7.8v3.5h4.6v2.8h-4.6v4h8.2v2.8h-11.1V144.2z M548.1,144.2v-15.8h7.2c1.3,0,2.4,0.2,3.1,0.7
				c0.8,0.5,1.3,1,1.6,1.8c0.3,0.7,0.5,1.5,0.5,2.4c0,0.6-0.1,1.2-0.4,1.8c-0.2,0.6-0.6,1.2-1,1.6c-0.5,0.5-1.1,0.9-1.8,1.1l3.1,6.4
				h-3.3l-3-6H551v6H548.1z M551,135.5h4.3c0.5,0,1-0.1,1.3-0.3s0.6-0.5,0.7-0.8c0.1-0.3,0.2-0.7,0.2-1.1c0-0.3-0.1-0.7-0.2-1
				s-0.3-0.6-0.7-0.8c-0.3-0.2-0.8-0.3-1.3-0.3H551V135.5z"/>
		</g>
	</g>
</g>
</svg>
