<svg xmlns="http://www.w3.org/2000/svg" viewBox="0 0 141.73 141.73"><defs><style>.cls-1{fill:#191d1d;}.cls-2{font-size:5.01px;}.cls-11,.cls-2,.cls-3,.cls-4{fill:#fff;}.cls-2,.cls-3,.cls-4{font-family:BigChumpBTN, Big Chump BTN;}.cls-3{font-size:8.37px;}.cls-4{font-size:4.18px;}.cls-5{letter-spacing:-0.02em;}.cls-6{letter-spacing:0em;}.cls-7{letter-spacing:-0.04em;}.cls-8{letter-spacing:-0.02em;}.cls-9{fill:none;stroke:#fff;stroke-miterlimit:10;stroke-width:0.75px;}.cls-10{fill:#096191;}.cls-12{fill:#66e49a;}.cls-13{fill:#479e9c;}</style></defs><g id="Layer_2" data-name="Layer 2"><path class="cls-1" d="M119,55.21,17.32,79.27l-1.62.38.19.81a1,1,0,0,0,1.26.77l.6-.14,12.46,52.7a10.32,10.32,0,0,0,12.41,7.66l81.64-19.31a10.31,10.31,0,0,0,7.67-12.41L119.46,57l.6-.14a1,1,0,0,0,.78-1.25l-.19-.81Z"/><text class="cls-2" transform="translate(34.37 107.91) rotate(-13.31)">DIRECTOR</text><text class="cls-3" transform="translate(56.33 91.36) rotate(-13.31)">ICT 2022</text><text class="cls-4" transform="translate(64.1 124.48) rotate(-13.31)">Better <tspan class="cls-5" x="14.75" y="0">F</tspan><tspan class="cls-6" x="16.71" y="0">uture Let’s Fly Higher</tspan></text><text class="cls-2" transform="translate(39.68 130.35) rotate(-13.31)">D<tspan class="cls-7" x="2.79" y="0">A</tspan><tspan x="5.96" y="0">TE</tspan></text><text class="cls-2" transform="translate(37.54 121.31) rotate(-13.31)"><tspan class="cls-8">C</tspan><tspan x="2.51" y="0">AMERA</tspan></text><line class="cls-9" x1="29.53" y1="87.42" x2="111.93" y2="67.93"/><line class="cls-9" x1="38.3" y1="124.48" x2="120.7" y2="104.99"/><line class="cls-9" x1="32.72" y1="100.92" x2="115.12" y2="81.43"/><line class="cls-9" x1="92.72" y1="86.73" x2="89.52" y2="73.23"/><line class="cls-9" x1="50.83" y1="96.63" x2="47.64" y2="83.13"/><path class="cls-1" d="M2.73,32H104a3.56,3.56,0,0,1,3.56,3.56v6.12a0,0,0,0,1,0,0H1.74a0,0,0,0,1,0,0V33a1,1,0,0,1,1-1Z" transform="translate(-11.06 42.23) rotate(-38.65)"/><rect class="cls-10" x="13.12" y="57.5" width="107.84" height="9.87" transform="translate(-12.57 17.11) rotate(-13.31)"/><path class="cls-10" d="M1.55,30.56H102.86a3.56,3.56,0,0,1,3.56,3.56v6.12a0,0,0,0,1,0,0H.55a0,0,0,0,1,0,0V31.55A1,1,0,0,1,1.55,30.56Z" transform="translate(-10.4 41.16) rotate(-38.65)"/><polygon class="cls-11" points="53.37 70.74 57.6 59.59 49.29 61.56 45.05 72.7 53.37 70.74"/><polygon class="cls-11" points="70.62 66.66 74.85 55.52 66.53 57.48 62.3 68.63 70.62 66.66"/><polygon class="cls-11" points="87.86 62.58 92.1 51.44 83.78 53.4 79.55 64.55 87.86 62.58"/><polygon class="cls-11" points="105.11 58.5 109.34 47.36 101.02 49.33 96.79 60.47 105.11 58.5"/><polygon class="cls-12" points="86.38 17.72 75.2 14.26 81.76 9.02 92.94 12.48 86.38 17.72"/><polygon class="cls-12" points="72.79 28.59 61.62 25.12 68.17 19.88 79.35 23.35 72.79 28.59"/><polygon class="cls-12" points="59.21 39.46 48.03 35.99 54.58 30.75 65.76 34.22 59.21 39.46"/><polygon class="cls-12" points="45.62 50.33 34.44 46.86 40.99 41.62 52.17 45.08 45.62 50.33"/><polygon class="cls-11" points="84.19 17.05 73.01 13.59 79.57 8.35 90.74 11.81 84.19 17.05"/><polygon class="cls-11" points="70.6 27.92 59.42 24.45 65.98 19.21 77.16 22.68 70.6 27.92"/><polygon class="cls-11" points="57.01 38.79 45.84 35.32 52.39 30.08 63.57 33.55 57.01 38.79"/><polygon class="cls-11" points="43.43 49.66 32.25 46.19 38.8 40.95 49.98 44.41 43.43 49.66"/><polygon class="cls-1" points="105.11 58.5 104.31 60.6 95.99 62.56 96.79 60.47 105.11 58.5"/><polygon class="cls-1" points="87.86 62.58 87.06 64.68 78.75 66.64 79.54 64.55 87.86 62.58"/><polygon class="cls-1" points="70.61 66.66 69.82 68.76 61.5 70.72 62.3 68.63 70.61 66.66"/><polygon class="cls-1" points="53.37 70.74 52.57 72.83 44.26 74.8 45.05 72.7 53.37 70.74"/><polygon class="cls-12" points="45.05 72.7 53.37 70.74 52.57 72.83 44.26 74.8 45.05 72.7"/><polygon class="cls-12" points="62.3 68.63 70.61 66.66 69.82 68.76 61.5 70.72 62.3 68.63"/><polygon class="cls-12" points="79.54 64.55 87.86 62.58 87.06 64.68 78.75 66.64 79.54 64.55"/><polygon class="cls-12" points="105.11 58.5 104.31 60.6 95.99 62.56 96.79 60.47 105.11 58.5"/><path class="cls-1" d="M19.53,59.67l-4,.95a1.74,1.74,0,0,0-1.29,2.09l3.25,13.72a1.72,1.72,0,0,0,2.09,1.29L35,74.07A1.74,1.74,0,0,0,36.31,72l-1.05-4.41Z"/><rect class="cls-13" x="16.97" y="61.63" width="3.97" height="4.65" rx="1.98" transform="translate(-45.43 46.48) rotate(-58.31)"/><path class="cls-11" d="M18,61.9a2,2,0,0,0,.52,3.86Z"/><path class="cls-11" d="M18.93,61.81l.51,3.79a2,2,0,0,0-.51-3.79Z"/><rect class="cls-13" x="19.2" y="70.9" width="3.86" height="4.52" rx="1.93" transform="translate(-52.22 52.7) rotate(-58.31)"/><path class="cls-11" d="M19,72.4a1.93,1.93,0,0,0,3.3,1.84Z"/><path class="cls-11" d="M19.48,71.63l3.25,1.81a1.93,1.93,0,0,0-3.25-1.81Z"/><rect class="cls-13" x="30.05" y="68.39" width="3.9" height="4.32" rx="1.89" transform="translate(-39.96 99.24) rotate(-87.33)"/><path class="cls-11" d="M30.65,69a2,2,0,0,0,1.58,3.48Z"/><path class="cls-11" d="M31.49,68.61,33,72a1.95,1.95,0,0,0-1.55-3.43Z"/></g></svg>