<?xml version="1.0" encoding="utf-8"?>
<!-- Generator: Adobe Illustrator 25.4.1, SVG Export Plug-In . SVG Version: 6.00 Build 0)  -->
<svg version="1.1" id="Layer_1" xmlns="http://www.w3.org/2000/svg" xmlns:xlink="http://www.w3.org/1999/xlink" x="0px" y="0px"
	 viewBox="0 0 283.5 283.5" style="enable-background:new 0 0 283.5 283.5;" xml:space="preserve">
<style type="text/css">
	.st0{opacity:0.2;fill-rule:evenodd;clip-rule:evenodd;fill:#242164;}
	.st1{fill-rule:evenodd;clip-rule:evenodd;fill:#242164;}
	.st2{fill-rule:evenodd;clip-rule:evenodd;fill:#07435E;}
	.st3{fill-rule:evenodd;clip-rule:evenodd;fill:#1090B2;}
	.st4{fill-rule:evenodd;clip-rule:evenodd;fill:#04222D;}
</style>
<g id="Layer_x0020_1">
	<g id="_2692655569264">
		<path class="st0" d="M48.4,173.1c-6.3-12.8-6.6-26,4.8-34.1c11.4-8.1,34.6-11.3,46.2-22.9c11.7-11.7,11.9-31.8,18.7-43.3
			c6.8-11.5,20.2-14.5,34.9-12.3c14.8,2.2,30.9,9.4,34.8,23.3s-4.2,34.6-0.6,48.2c3.5,13.6,18.9,20.2,26.1,31
			c7.3,10.7,6.6,25.7-0.9,35.1c-7.5,9.4-21.7,13.2-35.6,6c-14-7.3-27.5-25.6-43.8-26.3C116.9,177,98,194,82.4,196.2
			C66.9,198.5,54.6,186,48.4,173.1z"/>
		<path class="st1" d="M141.8,0C220,0,283.5,63.4,283.5,141.8c0,78.3-63.4,141.7-141.7,141.7C63.4,283.5,0,220,0,141.8
			C0,63.4,63.4,0,141.8,0z M141.8,10.8c72.3,0,130.9,58.6,130.9,131c0,72.3-58.6,130.9-130.9,130.9c-72.4,0-131-58.6-131-130.9
			C10.8,69.4,69.4,10.8,141.8,10.8z"/>
		<g>
			<path class="st2" d="M57.8,121.5l31,100.4c0.4,1.4,1.7,2,3,1.6l132.3-40.8c1.4-0.4,2-1.7,1.6-3l-25.3-82.1c-1-3.2-4.8-1-9,0.3
				l-74.2,22.6c1.7-0.6,17.9-9.5,19.8-10.6c6.6-3.5,13-6.9,19.7-10.5l34.6-18.6c5.8-3,2.4-4.5-5.6-12.9c-9.3-9.7-6.6-9.6-16.6-4.2
				c-16.9,9.2-34.3,18.1-51.3,27.3c-4.7,2.5-9.9,5.4-14.6,7.8c-2.3,1.2-27.5,14.8-29.5,15.5c-3.1,1-6.3,1.9-9.4,2.9
				C61.1,118,56.9,118.4,57.8,121.5z"/>
			<polygon class="st3" points="92.7,218.2 221.5,178.3 220.4,178.7 202.1,119.4 74.4,158.8 			"/>
			<path class="st3" d="M83.9,140.9l4.5-1.4l1.4,4.5l-4.5,1.4L83.9,140.9z M74.7,143.8l4.6-1.4l1.4,4.5l-4.6,1.4L74.7,143.8z
				 M69,125.6l4.6-1.4l1.4,4.5l-4.5,1.4L69,125.6z M72.9,154.3l22.8-7.1L91.4,133c-0.6-1.9-6-6-7.8-7.5c-2.6-2.2-5.5-4.5-8-7
				l-12.5,3.8L72.9,154.3z"/>
			<polygon class="st4" points="185.4,119.4 200.7,114.8 196.4,101.2 184.5,104.8 			"/>
			<polygon class="st4" points="91.4,110.4 103.6,122.1 114,116.6 101.7,105 			"/>
			<path class="st4" d="M131.5,89.1l12.2,11.5c1.9-0.8,8-3.9,9.2-5l-12-11.4L131.5,89.1z"/>
			<polygon class="st4" points="106.2,102.5 118.5,114.2 127.8,109.2 115.6,97.8 			"/>
			<polygon class="st4" points="126.1,137.7 137.3,134.4 136.5,119.8 125.2,123.2 			"/>
			<polygon class="st4" points="155.7,128.6 167,125.2 166.1,110.7 154.9,114 			"/>
			<path class="st4" d="M157,75.5L169.2,87l9.3-5c-1.4-1.6-4.4-4.2-6.1-5.8c-2-1.8-4.2-3.8-6-5.7L157,75.5z"/>
			<polygon class="st4" points="100.3,145.8 106.6,143.9 107.6,143.5 106.8,129 105.8,129.2 96.1,132.2 			"/>
			<polygon class="st4" points="171.6,123.7 180.7,121 179.9,106.4 170.8,109.1 			"/>
			<polygon class="st4" points="112.4,142 121.4,139.3 120.5,124.7 111.5,127.4 			"/>
			<polygon class="st4" points="142,132.8 151.1,130.2 150.2,115.6 141.2,118.2 			"/>
			<path class="st4" d="M120,95.2l12.4,11.6c1.8-1,5.5-2.5,6.8-3.9l-12-11.3L120,95.2z"/>
			<polygon class="st4" points="145.4,81.6 157.5,93.1 164.7,89.4 152.5,78 			"/>
			<path class="st4" d="M80.4,116.2c1.2,1.6,4.9,4.5,6.4,5.8c2,1.7,4.9,4,6.5,5.7l5.8-3.1l-12.4-11.7L80.4,116.2z"/>
			<path class="st4" d="M170.9,68.2c1.2,1.4,11.4,10.9,12.3,11.3l4.5-2.4c-1.1-1.4-10.4-11.2-11.4-11.7L170.9,68.2z"/>
			<polygon class="st4" points="76.1,148.3 80.7,146.9 79.3,142.3 74.7,143.8 			"/>
			<polygon class="st4" points="70.5,130.1 75,128.7 73.6,124.1 69,125.6 			"/>
			<polygon class="st4" points="85.2,145.5 89.8,144.1 88.3,139.5 83.9,140.9 			"/>
			<g>
				<polygon class="st4" points="108.1,184.6 107.6,184.8 189.9,159.3 190.3,159.2 191.6,163.3 109.3,188.7 				"/>
				<polygon class="st4" points="111.4,195.4 193.7,170.1 194.9,174.1 112.7,199.5 				"/>
				<polygon class="st4" points="104.8,173.8 104.3,174 186.6,148.5 187,148.4 188.2,152.4 106,177.8 				"/>
				<polygon class="st4" points="101.4,163 100.9,163.2 183.2,137.7 183.7,137.6 184.9,141.6 102.7,167 				"/>
			</g>
		</g>
	</g>
</g>
</svg>
