<?xml version="1.0" encoding="utf-8"?>
<!-- Generator: Adobe Illustrator 25.4.1, SVG Export Plug-In . SVG Version: 6.00 Build 0)  -->
<svg version="1.1" id="Layer_1" xmlns="http://www.w3.org/2000/svg" xmlns:xlink="http://www.w3.org/1999/xlink" x="0px" y="0px"
	 viewBox="0 0 283.5 283.5" style="enable-background:new 0 0 283.5 283.5;" xml:space="preserve">
<style type="text/css">
	.st0{opacity:0.2;fill-rule:evenodd;clip-rule:evenodd;fill:#242164;}
	.st1{fill-rule:evenodd;clip-rule:evenodd;fill:#096191;}
	.st2{fill-rule:evenodd;clip-rule:evenodd;fill:#0A5975;}
	.st3{fill-rule:evenodd;clip-rule:evenodd;fill:#1090B2;}
	.st4{fill-rule:evenodd;clip-rule:evenodd;fill:#04222D;}
	.st5{fill-rule:evenodd;clip-rule:evenodd;fill:#66E49A;}
	.st6{fill-rule:evenodd;clip-rule:evenodd;fill:#07435E;}
	.st7{fill-rule:evenodd;clip-rule:evenodd;fill:#119BCC;}
	.st8{fill-rule:evenodd;clip-rule:evenodd;fill:#242164;}
</style>
<g id="Layer_x0020_1">
	<g id="_2692655517264">
		<path class="st0" d="M48.4,173.1c-6.3-12.8-6.6-26,4.8-34.1c11.4-8.1,34.6-11.3,46.2-22.9c11.7-11.7,11.9-31.8,18.7-43.3
			c6.8-11.5,20.2-14.5,34.9-12.3c14.8,2.2,30.9,9.4,34.8,23.3s-4.2,34.6-0.6,48.2c3.5,13.6,18.9,20.2,26.1,31
			c7.3,10.7,6.6,25.7-0.9,35.1c-7.5,9.4-21.7,13.2-35.6,6c-14-7.3-27.5-25.6-43.8-26.3C116.9,177,98,194,82.4,196.2
			C66.9,198.5,54.6,186,48.4,173.1z"/>
		<g>
			<path id="Shape" class="st1" d="M172.9,129.7l-16.4-9l-10.7-13.6l3.7-4.5c2.1-2.5,5.8-2.8,8.3-0.7l18.1,15
				c2.4,2.1,2.8,5.8,0.7,8.3L172.9,129.7z"/>
			<path id="Shape_0" class="st2" d="M93.9,85c-1.2,0-2.2-0.6-2.7-1.7c-0.5-1-0.4-2.2,0.4-3.1l14.8-17.6c1-1.3,2.9-1.4,4.1-0.4
				c1.2,1.1,1.4,3,0.4,4.2L96.1,83.9C95.5,84.5,94.8,85,93.9,85L93.9,85z"/>
			<path id="Shape_1" class="st2" d="M204.6,177.2c-1.2,0-2.2-0.6-2.7-1.7c-0.5-1.1-0.4-2.3,0.4-3.2l14.5-17.4
				c0.6-0.8,1.7-1.2,2.7-1c1.1,0.1,1.9,0.9,2.3,1.9c0.4,1,0.1,2.1-0.6,3l-14.5,17.4C206.2,176.8,205.4,177.2,204.6,177.2
				L204.6,177.2z"/>
			<path id="Shape_2" class="st1" d="M162.5,167.6l-11.2,47.5l-11.3-9.5c8.4-9.9,0.9-29.9-16.5-44.4c-17.4-14.6-38.4-18.4-46.7-8.4
				l-11.2-9.4l44.7-19.4L162.5,167.6z"/>
			<path id="Shape_3" class="st3" d="M207.4,189.2c-3.2,3.8-8.8,4.5-12.8,1.6l-32.8-23.6c-2.8-2-6.5-2.2-9.5-0.5l-1.6,0.9
				c-2.1,1.2-4.8,0.9-6.7-0.6L114.2,142c-1.9-1.6-2.6-4.2-1.8-6.5l0.6-1.7c1.1-3.3,0.2-6.9-2.2-9.3L81.7,96.5
				c-3.6-3.5-3.9-9.1-0.7-12.9c3.2-3.8,8.8-4.5,12.8-1.6l32.8,23.6c2.7,2,6.5,2.2,9.5,0.5l1.5-0.9c2.2-1.2,4.8-0.9,6.7,0.6
				l29.9,24.9c1.9,1.6,2.6,4.2,1.7,6.5l-0.6,1.7c-1.2,3.2-0.3,6.9,2.2,9.3l29.1,28.1C210.2,179.8,210.6,185.4,207.4,189.2
				L207.4,189.2z"/>
			<circle id="Oval" class="st4" cx="144.2" cy="136.4" r="11.7"/>
			<circle id="Oval_4" class="st5" cx="144.2" cy="136.4" r="6.3"/>
			<path id="Shape_5" class="st4" d="M116.4,85.5c-0.6,0-1.4-0.3-1.9-0.7L87.5,62.1c-1.2-1.1-1.4-2.9-0.4-4.2c1-1.2,2.9-1.4,4.1-0.4
				l27.1,22.7c1,0.8,1.4,2.1,0.9,3.2C118.8,84.7,117.6,85.5,116.4,85.5L116.4,85.5z"/>
			<path id="Shape_6" class="st4" d="M227,177.8c-0.7,0-1.4-0.2-1.9-0.6L198,154.6c-1.2-1.1-1.4-3-0.4-4.2c1.1-1.2,2.9-1.4,4.2-0.4
				l27.1,22.6c0.9,0.8,1.3,2.1,0.9,3.3C229.3,177.1,228.2,177.9,227,177.8L227,177.8z"/>
			<path id="Shape_7" class="st6" d="M83.5,161.4c-0.6,0-1.3-0.2-1.9-0.6l-27.1-22.7c-1.2-1-1.4-2.9-0.4-4.1
				c1.1-1.2,2.9-1.4,4.2-0.4l27.1,22.6c0.9,0.8,1.3,2.1,0.9,3.3C85.9,160.7,84.8,161.4,83.5,161.4z"/>
			<path id="Shape_8" class="st6" d="M160.3,225.6c-0.7,0-1.4-0.2-1.9-0.6l-27.1-22.7c-1.3-1-1.4-2.9-0.4-4.1c1.1-1.3,3-1.4,4.2-0.4
				l27.1,22.7c0.9,0.8,1.3,2.1,0.9,3.2C162.6,224.8,161.5,225.6,160.3,225.6z"/>
			<g>
				<path id="Shape_9" class="st7" d="M77,211.8c-1.2,0-2.2-0.7-2.7-1.8c-0.4-1.1-0.2-2.4,0.6-3.2l35.3-35.3c1.2-1.1,3-1.1,4.1,0.1
					c1.2,1.2,1.2,3,0.1,4.1L79.1,211C78.6,211.5,77.8,211.8,77,211.8z"/>
				<path id="Shape_10" class="st7" d="M68.2,197.1c-1.2,0-2.2-0.7-2.7-1.8c-0.5-1.1-0.2-2.4,0.6-3.2l23.5-23.5c1.2-1.2,3-1.2,4.2,0
					c1.1,1.2,1.2,3,0,4.1l-23.5,23.5C69.8,196.8,69,197.1,68.2,197.1z"/>
				<path id="Shape_11" class="st7" d="M91.7,220.7c-1.2,0-2.2-0.7-2.7-1.8c-0.4-1.2-0.1-2.4,0.6-3.2l23.5-23.5
					c1.2-1.1,3-1.1,4.1,0.1c1.2,1.2,1.2,3,0.1,4.1l-23.5,23.5C93.2,220.3,92.5,220.7,91.7,220.7z"/>
				<path id="Shape_12" class="st7" d="M62.4,226.5c-1.2,0-2.3-0.7-2.7-1.8c-0.4-1.1-0.2-2.4,0.6-3.2l5.9-5.9c1.2-1.1,3-1.1,4.1,0.1
					c1.2,1.1,1.2,3,0,4.1l-5.8,5.8C63.9,226.2,63.1,226.5,62.4,226.5z"/>
			</g>
			<path id="Shape_13" class="st6" d="M212,114.8c-0.9,0-1.8-0.4-2.3-1.2c-0.6-0.7-0.8-1.7-0.5-2.5c0.8-3,1.2-6,1.2-9.1
				c0-19.5-15.8-35.3-35.3-35.3c-3-0.1-6.1,0.4-9.1,1.2c-1,0.3-2.1,0-2.9-0.7c-0.7-0.8-1-1.9-0.8-2.9c0.3-1,1.1-1.8,2.2-2.1
				c3.5-0.9,7-1.4,10.6-1.4c22.8,0,41.2,18.4,41.2,41.2c0,3.6-0.5,7.1-1.4,10.6C214.6,113.9,213.4,114.8,212,114.8L212,114.8z"/>
			<path id="Shape_14" class="st6" d="M200.7,111.7c-0.2,0-0.4,0-0.7-0.1c-1.6-0.4-2.5-2-2.1-3.6c0.5-1.9,0.8-4,0.8-6
				c0-13-10.6-23.5-23.5-23.5c-2,0-4.1,0.3-6,0.8c-1.6,0.4-3.2-0.6-3.6-2.1c-0.4-1.6,0.5-3.2,2.1-3.6c2.4-0.6,5-1,7.6-1
				c16.3,0.1,29.4,13.2,29.4,29.4c-0.1,2.5-0.4,5-1,7.6C203.2,110.9,202,111.7,200.7,111.7L200.7,111.7z"/>
			<path id="Shape_15" class="st6" d="M189.3,108.7c-0.2,0-0.5,0-0.7-0.1c-1.6-0.4-2.5-2-2.1-3.6c1.1-4.1-0.1-8.4-3-11.4
				c-3-3-7.3-4.1-11.4-3c-1.6,0.4-3.2-0.5-3.6-2.1c-0.4-1.6,0.5-3.2,2.1-3.6c6-1.7,12.6,0.1,17,4.5c4.5,4.5,6.2,10.9,4.6,17.1
				C191.8,107.9,190.7,108.7,189.3,108.7L189.3,108.7z"/>
		</g>
		<path class="st8" d="M141.8,0C220,0,283.5,63.4,283.5,141.8c0,78.3-63.4,141.7-141.7,141.7C63.4,283.5,0,220,0,141.8
			C0,63.4,63.4,0,141.8,0z M141.8,10.8c72.3,0,130.9,58.6,130.9,131c0,72.3-58.6,130.9-130.9,130.9c-72.4,0-131-58.6-131-130.9
			C10.8,69.4,69.4,10.8,141.8,10.8z"/>
	</g>
</g>
</svg>
